<svg width="51" height="50" viewBox="0 0 51 50" fill="none" xmlns="http://www.w3.org/2000/svg">
<path d="M34.4073 0H15.6573C7.02915 0 0.0322723 6.99688 0.0322723 15.625V34.375C0.0322723 43.0031 7.02915 50 15.6573 50H34.4073C43.0354 50 50.0323 43.0031 50.0323 34.375V15.625C50.0323 6.99688 43.0354 0 34.4073 0ZM45.3448 34.375C45.3448 40.4062 40.4385 45.3125 34.4073 45.3125H15.6573C9.62602 45.3125 4.71977 40.4062 4.71977 34.375V15.625C4.71977 9.59375 9.62602 4.6875 15.6573 4.6875H34.4073C40.4385 4.6875 45.3448 9.59375 45.3448 15.625V34.375Z" fill="black"/>
<path d="M25.0323 12.5C18.1291 12.5 12.5323 18.0969 12.5323 25C12.5323 31.9031 18.1291 37.5 25.0323 37.5C31.9354 37.5 37.5323 31.9031 37.5323 25C37.5323 18.0969 31.9354 12.5 25.0323 12.5ZM25.0323 32.8125C20.726 32.8125 17.2198 29.3062 17.2198 25C17.2198 20.6906 20.726 17.1875 25.0323 17.1875C29.3385 17.1875 32.8448 20.6906 32.8448 25C32.8448 29.3062 29.3385 32.8125 25.0323 32.8125Z" fill="black"/>
<path d="M38.4698 13.2282C39.3897 13.2282 40.1354 12.4825 40.1354 11.5626C40.1354 10.6427 39.3897 9.89697 38.4698 9.89697C37.5499 9.89697 36.8042 10.6427 36.8042 11.5626C36.8042 12.4825 37.5499 13.2282 38.4698 13.2282Z" fill="black"/>
</svg>
