<svg width="50" height="40" viewBox="0 0 50 40" fill="none" xmlns="http://www.w3.org/2000/svg">
<path d="M4.799 12.1093C5.4315 12.5556 7.33806 13.8812 10.5188 16.0854C13.6996 18.2895 16.1364 19.9866 17.8291 21.1769C18.0151 21.3073 18.4102 21.5909 19.0146 22.0281C19.6192 22.4655 20.1215 22.819 20.5212 23.0886C20.9212 23.3581 21.4048 23.6605 21.9724 23.9952C22.5398 24.3296 23.0746 24.5812 23.5768 24.7477C24.0792 24.9156 24.5441 24.9988 24.9719 24.9988H25H25.0281C25.4558 24.9988 25.921 24.9155 26.4233 24.7477C26.9254 24.5812 27.4607 24.3293 28.0276 23.9952C28.5949 23.6601 29.0784 23.358 29.4784 23.0886C29.8784 22.819 30.3803 22.4655 30.9851 22.0281C31.5894 21.5905 31.985 21.3073 32.171 21.1769C33.882 19.9866 38.2351 16.9638 45.2288 12.1087C46.5867 11.1605 47.7211 10.0163 48.6324 8.67693C49.5444 7.33816 49.9999 5.93372 49.9999 4.46439C49.9999 3.23654 49.5579 2.18548 48.6742 1.31131C47.7907 0.436939 46.7442 0 45.5355 0H4.46409C3.0319 0 1.92973 0.483556 1.15778 1.45067C0.385926 2.41797 0 3.62706 0 5.07782C0 6.24967 0.511701 7.51954 1.53461 8.88665C2.55743 10.2539 3.64592 11.3282 4.799 12.1093Z" fill="black"/>
<path d="M47.2094 15.0946C41.1089 19.2237 36.4766 22.4327 33.3148 24.7208C32.2546 25.5018 31.3945 26.1114 30.7339 26.5482C30.0734 26.9854 29.1949 27.4318 28.0972 27.8873C26.9999 28.3435 25.9773 28.5709 25.0285 28.5709H25H24.972C24.0234 28.5709 23.0002 28.3435 21.9029 27.8873C20.8056 27.4318 19.9265 26.9854 19.2662 26.5482C18.606 26.1114 17.7456 25.5018 16.6855 24.7208C14.1742 22.8795 9.55188 19.6703 2.81836 15.0946C1.75782 14.3882 0.818467 13.5785 0 12.6672V34.8206C0 36.049 0.436939 37.0995 1.31131 37.9738C2.18548 38.8483 3.23663 39.2855 4.46439 39.2855H45.5359C46.7634 39.2855 47.8144 38.8483 48.6887 37.9738C49.5633 37.0992 50 36.0491 50 34.8206V12.6672C49.2 13.5597 48.2702 14.3694 47.2094 15.0946Z" fill="black"/>
</svg>
