<svg width="51" height="48" viewBox="0 0 51 48" fill="none" xmlns="http://www.w3.org/2000/svg">
<path d="M50.0323 29.2926V47.7779H39.3157V30.5306C39.3157 26.198 37.7656 23.2411 33.8866 23.2411C30.9254 23.2411 29.1632 25.2338 28.3879 27.1614C28.1052 27.8506 28.0325 28.8097 28.0325 29.7743V47.7779H17.3122C17.3122 47.7779 17.4566 18.5667 17.3122 15.5402H28.0314V20.1098C28.0097 20.1439 27.9814 20.1808 27.961 20.2139H28.0314V20.1098C29.4556 17.9163 31.9989 14.7828 37.6918 14.7828C44.7449 14.7827 50.0323 19.3904 50.0323 29.2926ZM6.09843 0C2.43105 0 0.0322876 2.40551 0.0322876 5.56883C0.0322876 8.66322 2.36165 11.1417 5.95614 11.1417H6.02775C9.76615 11.1417 12.0911 8.66369 12.0911 5.56883C12.0207 2.40551 9.76615 0 6.09843 0ZM0.668975 47.7779H11.3851V15.5402H0.668975V47.7779Z" fill="black"/>
</svg>
