<svg width="51" height="41" viewBox="0 0 51 41" fill="none" xmlns="http://www.w3.org/2000/svg">
<path d="M50.0322 4.80531C48.192 5.62075 46.2174 6.17377 44.1427 6.42066C46.2611 5.15212 47.8826 3.14003 48.6512 0.749836C46.6641 1.92459 44.4707 2.77761 42.1336 3.24003C40.2621 1.24354 37.6001 0 34.6475 0C28.983 0 24.3901 4.59289 24.3901 10.2543C24.3901 11.0573 24.4807 11.8415 24.6557 12.5914C16.1323 12.1633 8.57437 8.07973 3.51595 1.87459C2.63172 3.38684 2.12869 5.14893 2.12869 7.0299C2.12869 10.5886 3.94087 13.7287 6.69038 15.5658C5.00941 15.5095 3.42845 15.0471 2.04438 14.2785V14.4066C2.04438 19.3744 5.58123 23.5205 10.2709 24.4641C9.4117 24.6953 8.50566 24.8234 7.56832 24.8234C6.90598 24.8234 6.26546 24.7578 5.63744 24.6328C6.9434 28.7102 10.7302 31.6752 15.2169 31.7565C11.7082 34.506 7.28401 36.1401 2.47869 36.1401C1.65075 36.1401 0.835229 36.0901 0.0322876 35.9995C4.57208 38.9146 9.9617 40.6143 15.7544 40.6143C34.6227 40.6143 44.9364 24.9859 44.9364 11.4323L44.902 10.1044C46.9172 8.66707 48.6606 6.86119 50.0322 4.80531Z" fill="#010002"/>
</svg>
