<svg width="750" height="557" viewBox="0 0 750 557" fill="none" xmlns="http://www.w3.org/2000/svg">
<path opacity="0.1" d="M330.566 20.9827C300.883 8.91559 269.523 -1.15829 237.511 0.107683C190.441 1.9595 145.297 30.2755 123.136 71.8437C104.355 107.062 102.038 148.341 93.951 187.424C83.9714 235.585 64.8876 281.335 44.4975 326.088C33.5482 350.128 21.9928 374.686 20.2016 401.043C17.7034 437.621 35.1912 474.078 62.6251 498.415C90.0589 522.751 126.476 535.592 163.034 538.394C182.488 539.882 202.818 538.501 220.104 529.444C238.379 519.869 251.712 502.556 270.062 493.115C287.072 484.361 306.971 483.129 326.068 484.273C351.079 485.775 375.725 491.014 399.184 499.815C425.877 509.842 450.698 524.353 477.331 534.522C503.963 544.69 533.72 550.353 560.945 541.875C586.494 533.909 606.736 514.562 624.917 494.967C654.834 462.796 682.12 428.275 706.512 391.737C722.949 367.117 738.248 341.138 745.521 312.438C759.413 257.571 740.289 195.666 697.872 158.233C662.748 127.169 615.584 113.701 569.417 105.5C527.316 98.0452 478.637 97.5806 439.884 78.1466C402.928 59.615 369.299 36.74 330.566 20.9827Z" fill="#15BDDB"/>
<path d="M628.964 388.484L630.089 389.615L630.594 387.669L630.055 385.75H628.668L628.964 388.484Z" fill="#464A5F"/>
<path opacity="0.1" d="M628.964 388.484L630.089 389.615L630.594 387.669L630.055 385.75H628.668L628.964 388.484Z" fill="black"/>
<path d="M628.964 388.484L630.055 389.649L628.964 390.928L627.793 390.491L627.503 389.925L628.964 388.484Z" fill="#9C9CA1"/>
<path opacity="0.1" d="M628.964 388.484L630.055 389.649L628.964 390.928L627.793 390.491L627.503 389.925L628.964 388.484Z" fill="black"/>
<path d="M421.682 183.922L298.533 307.072C296.319 309.286 295.073 312.287 295.066 315.418C295.06 318.549 296.294 321.555 298.499 323.778L487.263 514.044C489.471 516.267 492.469 517.525 495.602 517.541C498.735 517.557 501.746 516.331 503.977 514.132L628.964 390.935L421.682 183.922Z" fill="#9C9CA1"/>
<path opacity="0.1" d="M421.682 183.922L298.533 307.072C296.319 309.286 295.073 312.287 295.066 315.418C295.06 318.549 296.294 321.555 298.499 323.778L487.263 514.044C489.471 516.267 492.469 517.525 495.602 517.541C498.735 517.557 501.746 516.331 503.977 514.132L628.964 390.935L421.682 183.922Z" fill="black"/>
<path d="M421.682 181.478L298.533 304.627C296.319 306.841 295.073 309.842 295.066 312.974C295.06 316.105 296.294 319.111 298.499 321.334L487.263 511.593C489.47 513.817 492.468 515.076 495.601 515.093C498.733 515.111 501.745 513.886 503.977 511.687L628.964 388.457L421.682 181.478Z" fill="#9C9CA1"/>
<path d="M434.611 94.914L423.312 180.663L630.594 387.669L642.499 300.506C642.769 298.556 642.578 296.57 641.942 294.707C641.305 292.845 640.242 291.157 638.836 289.779L438.84 93.446C438.507 93.1224 438.091 92.8978 437.637 92.7972C437.184 92.6966 436.712 92.7239 436.273 92.8762C435.834 93.0285 435.447 93.2997 435.153 93.6595C434.86 94.0193 434.672 94.4536 434.611 94.914Z" fill="#464A5F"/>
<path opacity="0.1" d="M434.611 94.914L423.312 180.663L630.594 387.669L642.499 300.506C642.769 298.556 642.578 296.57 641.942 294.707C641.305 292.845 640.242 291.157 638.836 289.779L438.84 93.446C438.507 93.1224 438.091 92.8978 437.637 92.7972C437.184 92.6966 436.712 92.7239 436.273 92.8762C435.834 93.0285 435.447 93.2997 435.153 93.6595C434.86 94.0193 434.672 94.4536 434.611 94.914Z" fill="black"/>
<path d="M432.982 95.7288L421.682 181.478L628.964 388.484L640.87 301.321C641.139 299.371 640.948 297.385 640.312 295.522C639.676 293.66 638.612 291.972 637.207 290.594L437.211 94.2608C436.877 93.9372 436.461 93.7126 436.008 93.612C435.554 93.5114 435.082 93.5388 434.644 93.691C434.205 93.8433 433.817 94.1145 433.524 94.4743C433.23 94.8341 433.043 95.2685 432.982 95.7288Z" fill="#464A5F"/>
<g opacity="0.1">
<path opacity="0.1" d="M422.234 220.885L414.74 228.447C414.518 228.668 414.342 228.93 414.222 229.219C414.102 229.508 414.041 229.817 414.041 230.13C414.041 230.443 414.102 230.753 414.222 231.042C414.342 231.33 414.518 231.593 414.74 231.814L422.335 239.605C422.773 240.06 423.374 240.322 424.005 240.335C424.636 240.347 425.247 240.109 425.702 239.672L433.163 232.628C433.617 232.2 433.884 231.61 433.907 230.987C433.929 230.363 433.706 229.756 433.285 229.295L425.689 220.986C425.474 220.744 425.211 220.549 424.918 220.412C424.625 220.276 424.307 220.2 423.983 220.191C423.66 220.181 423.338 220.238 423.037 220.357C422.737 220.477 422.463 220.656 422.234 220.885Z" fill="black"/>
<path opacity="0.1" d="M436.2 234.857L428.733 242.413C428.295 242.857 428.05 243.456 428.05 244.079C428.05 244.703 428.295 245.301 428.733 245.746L436.328 253.537C436.545 253.763 436.804 253.944 437.09 254.07C437.377 254.196 437.685 254.264 437.998 254.27C438.311 254.276 438.622 254.221 438.913 254.106C439.204 253.992 439.47 253.822 439.695 253.605L447.156 246.568C447.617 246.136 447.888 245.54 447.911 244.909C447.934 244.278 447.706 243.664 447.278 243.201L439.655 234.911C439.436 234.673 439.172 234.481 438.877 234.349C438.582 234.216 438.263 234.145 437.939 234.14C437.616 234.135 437.295 234.196 436.996 234.32C436.697 234.443 436.426 234.626 436.2 234.857Z" fill="black"/>
<path opacity="0.1" d="M450.867 249.517L443.399 257.079C442.963 257.525 442.719 258.123 442.719 258.746C442.719 259.369 442.963 259.967 443.399 260.412L451.001 268.204C451.439 268.658 452.04 268.921 452.671 268.933C453.302 268.946 453.913 268.708 454.368 268.271L461.83 261.227C462.283 260.799 462.55 260.209 462.573 259.585C462.596 258.962 462.372 258.354 461.951 257.894L454.355 249.584C454.137 249.34 453.871 249.143 453.573 249.006C453.276 248.869 452.953 248.795 452.626 248.789C452.298 248.782 451.973 248.844 451.67 248.969C451.367 249.094 451.094 249.281 450.867 249.517Z" fill="black"/>
<path opacity="0.1" d="M465.695 264.352L458.234 271.948C457.798 272.393 457.554 272.991 457.554 273.614C457.554 274.237 457.798 274.835 458.234 275.281L465.836 283.072C466.274 283.527 466.875 283.789 467.506 283.802C468.137 283.815 468.747 283.576 469.203 283.139L476.658 276.096C477.114 275.669 477.383 275.08 477.407 274.455C477.431 273.831 477.208 273.223 476.785 272.762L469.149 264.419C468.931 264.181 468.667 263.989 468.372 263.856C468.078 263.723 467.76 263.651 467.436 263.644C467.113 263.638 466.792 263.698 466.493 263.819C466.194 263.941 465.922 264.122 465.695 264.352Z" fill="black"/>
<path opacity="0.1" d="M480.53 279.187L473.068 286.762C472.623 287.209 472.372 287.814 472.372 288.446C472.372 289.077 472.623 289.682 473.068 290.129L480.671 297.92C481.109 298.375 481.709 298.637 482.34 298.65C482.972 298.663 483.582 298.424 484.038 297.988L491.492 290.944C491.948 290.517 492.218 289.928 492.242 289.304C492.266 288.679 492.042 288.071 491.62 287.611L484.024 279.301C483.809 279.053 483.545 278.852 483.249 278.711C482.952 278.57 482.63 278.492 482.302 278.481C481.974 278.47 481.647 278.527 481.342 278.649C481.037 278.77 480.76 278.953 480.53 279.187Z" fill="black"/>
<path opacity="0.1" d="M496.3 293.072L487.028 302.466C486.824 302.674 486.709 302.955 486.709 303.247C486.709 303.539 486.824 303.819 487.028 304.028L496.368 313.597C496.576 313.801 496.857 313.915 497.149 313.915C497.441 313.915 497.721 313.801 497.93 313.597L507.202 304.843C507.415 304.642 507.54 304.365 507.551 304.073C507.561 303.78 507.455 303.495 507.256 303.28L497.923 293.072C497.819 292.962 497.693 292.874 497.553 292.814C497.414 292.754 497.264 292.723 497.112 292.723C496.96 292.723 496.81 292.754 496.67 292.814C496.531 292.874 496.405 292.962 496.3 293.072Z" fill="black"/>
<path opacity="0.1" d="M511.135 307.906L501.862 317.334C501.659 317.542 501.545 317.821 501.545 318.112C501.545 318.403 501.659 318.682 501.862 318.889L511.202 328.465C511.411 328.669 511.692 328.783 511.983 328.783C512.275 328.783 512.556 328.669 512.765 328.465L522.037 319.711C522.25 319.51 522.375 319.233 522.385 318.941C522.395 318.648 522.29 318.364 522.091 318.149L512.758 307.94C512.656 307.828 512.532 307.737 512.393 307.674C512.255 307.611 512.106 307.577 511.954 307.574C511.802 307.571 511.651 307.599 511.51 307.656C511.369 307.713 511.242 307.798 511.135 307.906Z" fill="black"/>
<path opacity="0.1" d="M524.266 321.038L514.993 330.465C514.79 330.673 514.676 330.952 514.676 331.243C514.676 331.534 514.79 331.813 514.993 332.02L524.333 341.596C524.542 341.8 524.823 341.914 525.114 341.914C525.406 341.914 525.687 341.8 525.896 341.596L535.168 332.842C535.381 332.641 535.506 332.364 535.516 332.072C535.526 331.779 535.421 331.495 535.222 331.28L525.882 321.105C525.782 320.991 525.661 320.899 525.524 320.834C525.388 320.768 525.24 320.732 525.089 320.725C524.937 320.719 524.787 320.743 524.645 320.797C524.504 320.851 524.375 320.933 524.266 321.038Z" fill="black"/>
<path opacity="0.1" d="M538.973 335.744L529.7 345.131C529.495 345.339 529.379 345.62 529.379 345.913C529.379 346.205 529.495 346.486 529.7 346.694L539.04 356.262C539.248 356.468 539.529 356.583 539.821 356.583C540.114 356.583 540.394 356.468 540.602 356.262L549.875 347.508C550.086 347.307 550.21 347.03 550.22 346.738C550.23 346.446 550.126 346.162 549.929 345.946L540.596 335.738C540.491 335.628 540.365 335.541 540.225 335.481C540.085 335.422 539.935 335.391 539.783 335.392C539.631 335.393 539.481 335.424 539.342 335.485C539.202 335.545 539.077 335.634 538.973 335.744Z" fill="black"/>
<path opacity="0.1" d="M553.215 349.987L543.942 359.374C543.737 359.582 543.622 359.862 543.622 360.155C543.622 360.447 543.737 360.728 543.942 360.936L553.282 370.511C553.491 370.715 553.772 370.83 554.063 370.83C554.355 370.83 554.636 370.715 554.845 370.511L564.117 361.757C564.329 361.556 564.452 361.279 564.463 360.987C564.473 360.695 564.368 360.411 564.171 360.195L554.804 350.02C554.702 349.913 554.58 349.827 554.445 349.767C554.31 349.707 554.164 349.675 554.017 349.672C553.869 349.669 553.722 349.695 553.584 349.749C553.447 349.803 553.321 349.884 553.215 349.987Z" fill="black"/>
<path opacity="0.1" d="M567.457 364.202L558.171 373.629C557.968 373.837 557.854 374.116 557.854 374.407C557.854 374.698 557.968 374.977 558.171 375.185L567.511 384.76C567.72 384.964 568 385.078 568.292 385.078C568.584 385.078 568.864 384.964 569.073 384.76L578.346 376.006C578.559 375.805 578.684 375.529 578.694 375.236C578.704 374.944 578.598 374.659 578.4 374.444L569.067 364.235C568.965 364.125 568.841 364.036 568.704 363.975C568.567 363.913 568.419 363.88 568.269 363.876C568.119 363.873 567.969 363.901 567.83 363.956C567.69 364.012 567.564 364.096 567.457 364.202Z" fill="black"/>
<path opacity="0.1" d="M581.699 378.471L572.427 387.865C572.223 388.073 572.109 388.354 572.109 388.646C572.109 388.938 572.223 389.218 572.427 389.427L581.74 398.996C581.944 399.204 582.222 399.325 582.514 399.331C582.806 399.337 583.089 399.229 583.302 399.029L592.575 390.275C592.787 390.074 592.913 389.798 592.923 389.505C592.933 389.213 592.827 388.928 592.628 388.713L583.295 378.504C583.193 378.396 583.071 378.309 582.935 378.249C582.799 378.188 582.653 378.156 582.504 378.153C582.356 378.149 582.208 378.176 582.07 378.231C581.932 378.285 581.806 378.367 581.699 378.471Z" fill="black"/>
<path opacity="0.1" d="M408.679 234.447L401.218 242.002C400.996 242.223 400.821 242.485 400.701 242.774C400.581 243.063 400.519 243.373 400.519 243.685C400.519 243.998 400.581 244.308 400.701 244.597C400.821 244.886 400.996 245.148 401.218 245.369L408.82 253.16C409.037 253.386 409.296 253.567 409.582 253.693C409.869 253.819 410.177 253.887 410.49 253.893C410.803 253.899 411.114 253.843 411.405 253.729C411.696 253.615 411.962 253.445 412.187 253.227L419.642 246.19C420.105 245.761 420.379 245.165 420.403 244.533C420.427 243.902 420.199 243.287 419.77 242.824L412.127 234.507C411.908 234.27 411.644 234.08 411.35 233.948C411.056 233.816 410.738 233.745 410.416 233.739C410.094 233.734 409.774 233.793 409.475 233.915C409.176 234.037 408.906 234.217 408.679 234.447Z" fill="black"/>
<path opacity="0.1" d="M379.05 264.069L371.582 271.624C371.136 272.071 370.886 272.677 370.886 273.308C370.886 273.939 371.136 274.544 371.582 274.991L379.178 282.722C379.613 283.169 380.206 283.427 380.829 283.441C381.453 283.455 382.057 283.223 382.511 282.796L389.972 275.752C390.428 275.325 390.696 274.735 390.718 274.111C390.741 273.486 390.517 272.878 390.094 272.419L382.498 264.136C382.28 263.898 382.017 263.706 381.723 263.573C381.429 263.44 381.111 263.368 380.788 263.362C380.466 263.356 380.145 263.415 379.846 263.537C379.548 263.658 379.277 263.839 379.05 264.069Z" fill="black"/>
<path opacity="0.1" d="M422.645 248.413L415.177 255.968C414.956 256.189 414.78 256.451 414.66 256.74C414.54 257.029 414.478 257.339 414.478 257.652C414.478 257.964 414.54 258.274 414.66 258.563C414.78 258.852 414.956 259.114 415.177 259.335L422.773 267.126C423.21 267.582 423.81 267.846 424.441 267.859C425.072 267.873 425.683 267.636 426.14 267.2L433.594 260.123C434.055 259.691 434.326 259.095 434.349 258.464C434.372 257.834 434.144 257.22 433.716 256.756L426.12 248.453C425.901 248.211 425.634 248.018 425.337 247.884C425.039 247.75 424.717 247.679 424.391 247.675C424.065 247.671 423.742 247.735 423.441 247.862C423.141 247.989 422.87 248.176 422.645 248.413Z" fill="black"/>
<path opacity="0.1" d="M437.305 263.079L429.844 270.634C429.406 271.079 429.161 271.678 429.161 272.301C429.161 272.925 429.406 273.523 429.844 273.968L437.446 281.759C437.663 281.985 437.921 282.166 438.208 282.292C438.494 282.417 438.803 282.485 439.116 282.492C439.428 282.498 439.739 282.442 440.031 282.328C440.322 282.214 440.588 282.043 440.813 281.826L448.267 274.789C448.731 274.36 449.004 273.764 449.028 273.132C449.052 272.501 448.825 271.886 448.395 271.422L440.8 263.113C440.579 262.87 440.31 262.676 440.011 262.542C439.711 262.407 439.388 262.337 439.06 262.333C438.731 262.33 438.406 262.395 438.104 262.523C437.802 262.651 437.53 262.841 437.305 263.079Z" fill="black"/>
<path opacity="0.1" d="M452.139 277.907L444.678 285.469C444.241 285.914 443.996 286.512 443.996 287.136C443.996 287.759 444.241 288.358 444.678 288.802L452.281 296.594C452.716 297.041 453.31 297.3 453.934 297.312C454.558 297.325 455.162 297.091 455.614 296.661L463.075 289.624C463.538 289.194 463.812 288.598 463.836 287.967C463.86 287.336 463.632 286.721 463.203 286.257L455.594 278.008C455.378 277.768 455.115 277.575 454.822 277.439C454.529 277.303 454.211 277.229 453.888 277.219C453.565 277.21 453.244 277.266 452.943 277.384C452.643 277.502 452.369 277.68 452.139 277.907Z" fill="black"/>
<path opacity="0.1" d="M393.494 277.564L386.026 285.119C385.589 285.564 385.344 286.162 385.344 286.786C385.344 287.409 385.589 288.008 386.026 288.452L393.622 296.243C393.838 296.469 394.097 296.65 394.384 296.776C394.67 296.902 394.979 296.97 395.292 296.976C395.604 296.982 395.915 296.927 396.207 296.813C396.498 296.698 396.764 296.528 396.989 296.311L404.45 289.274C404.911 288.842 405.182 288.246 405.205 287.615C405.227 286.985 405 286.37 404.571 285.907L396.976 277.604C396.756 277.361 396.489 277.167 396.191 277.032C395.893 276.897 395.571 276.826 395.244 276.822C394.917 276.818 394.592 276.882 394.291 277.01C393.99 277.138 393.719 277.326 393.494 277.564Z" fill="black"/>
<path opacity="0.1" d="M408.154 292.223L400.693 299.785C400.471 300.006 400.295 300.269 400.175 300.558C400.056 300.846 399.994 301.156 399.994 301.469C399.994 301.782 400.056 302.091 400.175 302.38C400.295 302.669 400.471 302.932 400.693 303.152L408.295 310.943C408.512 311.169 408.77 311.351 409.057 311.476C409.343 311.602 409.652 311.67 409.965 311.676C410.278 311.682 410.588 311.627 410.88 311.513C411.171 311.399 411.437 311.228 411.662 311.011L419.117 303.974C419.58 303.544 419.853 302.948 419.877 302.317C419.901 301.686 419.674 301.071 419.245 300.607L411.649 292.297C411.431 292.052 411.164 291.854 410.867 291.717C410.569 291.579 410.245 291.505 409.917 291.498C409.589 291.491 409.263 291.552 408.96 291.676C408.656 291.801 408.382 291.987 408.154 292.223Z" fill="black"/>
<path opacity="0.1" d="M422.989 307.058L415.527 314.62C415.09 315.065 414.845 315.663 414.845 316.287C414.845 316.91 415.09 317.509 415.527 317.953L423.13 325.745C423.568 326.199 424.168 326.462 424.799 326.474C425.431 326.487 426.041 326.249 426.497 325.812L433.951 318.768C434.408 318.342 434.677 317.752 434.701 317.128C434.725 316.504 434.501 315.895 434.079 315.435L426.483 307.125C426.265 306.881 425.998 306.683 425.7 306.546C425.402 306.409 425.079 306.335 424.751 306.329C424.423 306.323 424.097 306.384 423.794 306.51C423.49 306.635 423.216 306.822 422.989 307.058Z" fill="black"/>
<path opacity="0.1" d="M466.974 292.742L459.513 300.304C459.076 300.749 458.831 301.347 458.831 301.971C458.831 302.594 459.076 303.193 459.513 303.637L467.116 311.428C467.332 311.654 467.591 311.835 467.877 311.961C468.164 312.087 468.472 312.155 468.785 312.161C469.098 312.167 469.409 312.112 469.7 311.998C469.991 311.883 470.257 311.713 470.483 311.496L477.944 304.459C478.173 304.246 478.359 303.99 478.489 303.705C478.62 303.421 478.693 303.113 478.704 302.8C478.715 302.488 478.664 302.176 478.555 301.882C478.445 301.589 478.279 301.321 478.065 301.092L470.422 292.823C470.205 292.583 469.942 292.391 469.649 292.257C469.356 292.122 469.038 292.049 468.715 292.042C468.393 292.034 468.072 292.092 467.773 292.213C467.473 292.333 467.202 292.513 466.974 292.742Z" fill="black"/>
<path opacity="0.1" d="M481.809 307.577L474.341 315.139C473.904 315.583 473.659 316.182 473.659 316.805C473.659 317.429 473.904 318.027 474.341 318.472L481.944 326.263C482.16 326.489 482.419 326.67 482.705 326.796C482.992 326.922 483.3 326.99 483.613 326.996C483.926 327.002 484.237 326.946 484.528 326.832C484.819 326.718 485.085 326.548 485.311 326.33L492.772 319.287C493.227 318.859 493.495 318.269 493.518 317.645C493.541 317.021 493.316 316.413 492.893 315.953L485.257 307.637C485.039 307.399 484.775 307.208 484.481 307.076C484.186 306.943 483.868 306.872 483.546 306.866C483.223 306.861 482.903 306.921 482.604 307.043C482.306 307.165 482.035 307.346 481.809 307.577Z" fill="black"/>
<path opacity="0.1" d="M497.566 321.462L488.294 330.889C488.088 331.097 487.973 331.378 487.973 331.67C487.973 331.963 488.088 332.243 488.294 332.451L497.64 341.98C497.848 342.186 498.129 342.301 498.421 342.301C498.714 342.301 498.995 342.186 499.203 341.98L508.475 333.226C508.686 333.024 508.81 332.748 508.821 332.456C508.831 332.164 508.726 331.879 508.529 331.664L499.196 321.455C499.091 321.344 498.964 321.256 498.824 321.196C498.683 321.136 498.532 321.105 498.38 321.106C498.227 321.107 498.076 321.138 497.936 321.2C497.796 321.261 497.67 321.35 497.566 321.462Z" fill="black"/>
<path opacity="0.1" d="M510.711 334.573L501.438 344C501.233 344.208 501.117 344.489 501.117 344.781C501.117 345.074 501.233 345.354 501.438 345.562L510.778 355.131C510.986 355.337 511.267 355.452 511.559 355.452C511.852 355.452 512.132 355.337 512.34 355.131L521.613 346.377C521.824 346.175 521.948 345.899 521.958 345.607C521.968 345.315 521.864 345.031 521.667 344.815L512.334 334.606C512.231 334.494 512.108 334.403 511.969 334.341C511.831 334.278 511.681 334.244 511.529 334.24C511.378 334.237 511.227 334.265 511.086 334.322C510.945 334.379 510.818 334.465 510.711 334.573Z" fill="black"/>
<path opacity="0.1" d="M525.418 349.3L516.138 358.727C515.935 358.935 515.821 359.214 515.821 359.505C515.821 359.796 515.935 360.075 516.138 360.283L525.471 369.858C525.68 370.062 525.961 370.176 526.253 370.176C526.544 370.176 526.825 370.062 527.034 369.858L536.306 361.104C536.52 360.904 536.646 360.628 536.658 360.335C536.669 360.043 536.565 359.758 536.367 359.542L527.034 349.333C526.932 349.222 526.808 349.132 526.67 349.07C526.533 349.008 526.384 348.974 526.233 348.971C526.082 348.968 525.932 348.995 525.792 349.052C525.651 349.108 525.524 349.193 525.418 349.3Z" fill="black"/>
<path opacity="0.1" d="M539.66 363.528L530.387 372.956C530.182 373.164 530.066 373.444 530.066 373.737C530.066 374.029 530.182 374.31 530.387 374.518L539.72 384.087C539.93 384.291 540.212 384.406 540.505 384.406C540.798 384.406 541.079 384.291 541.289 384.087L550.555 375.333C550.769 375.133 550.895 374.857 550.907 374.564C550.918 374.272 550.813 373.986 550.616 373.771L541.283 363.562C541.18 363.45 541.056 363.359 540.918 363.296C540.78 363.233 540.63 363.199 540.478 363.196C540.326 363.193 540.176 363.221 540.035 363.278C539.894 363.335 539.766 363.42 539.66 363.528Z" fill="black"/>
<path opacity="0.1" d="M423.211 277.173L415.743 284.742C415.306 285.187 415.061 285.785 415.061 286.409C415.061 287.032 415.306 287.631 415.743 288.075L423.345 295.866C423.561 296.093 423.82 296.275 424.107 296.401C424.393 296.527 424.702 296.596 425.015 296.602C425.328 296.608 425.639 296.552 425.93 296.438C426.222 296.323 426.488 296.152 426.712 295.934L434.173 288.897C434.636 288.466 434.908 287.87 434.931 287.238C434.954 286.607 434.725 285.993 434.295 285.53L426.659 277.24C426.442 277.001 426.178 276.809 425.884 276.675C425.59 276.542 425.272 276.469 424.949 276.463C424.626 276.457 424.306 276.516 424.007 276.639C423.708 276.761 423.437 276.943 423.211 277.173Z" fill="black"/>
<path opacity="0.1" d="M438.045 292.008L430.578 299.557C430.14 300.001 429.895 300.6 429.895 301.223C429.895 301.847 430.14 302.445 430.578 302.89L438.18 310.681C438.396 310.908 438.655 311.089 438.941 311.216C439.228 311.342 439.537 311.41 439.85 311.416C440.163 311.423 440.474 311.367 440.765 311.252C441.057 311.137 441.322 310.966 441.547 310.748L449.008 303.711C449.469 303.28 449.74 302.684 449.763 302.053C449.785 301.422 449.558 300.808 449.129 300.344L441.534 292.041C441.314 291.798 441.046 291.603 440.747 291.468C440.448 291.334 440.125 291.263 439.797 291.259C439.469 291.256 439.144 291.321 438.843 291.45C438.541 291.579 438.27 291.769 438.045 292.008Z" fill="black"/>
<path opacity="0.1" d="M452.88 306.843L445.412 314.371C444.975 314.816 444.73 315.414 444.73 316.038C444.73 316.661 444.975 317.26 445.412 317.704L453.008 325.495C453.225 325.721 453.483 325.902 453.77 326.028C454.056 326.154 454.365 326.222 454.678 326.228C454.99 326.234 455.301 326.179 455.593 326.065C455.884 325.95 456.15 325.78 456.375 325.563L463.836 318.526C464.297 318.094 464.568 317.498 464.591 316.867C464.613 316.237 464.386 315.622 463.957 315.159L456.362 306.849C456.14 306.61 455.871 306.418 455.571 306.287C455.272 306.156 454.949 306.088 454.622 306.088C454.296 306.087 453.972 306.154 453.673 306.284C453.373 306.413 453.103 306.604 452.88 306.843Z" fill="black"/>
<path opacity="0.1" d="M467.715 321.677L460.247 329.233C459.81 329.677 459.565 330.276 459.565 330.899C459.565 331.523 459.81 332.121 460.247 332.566L467.843 340.357C468.059 340.583 468.318 340.764 468.605 340.89C468.891 341.016 469.2 341.083 469.512 341.09C469.825 341.096 470.136 341.04 470.427 340.926C470.719 340.812 470.985 340.642 471.21 340.424L478.671 333.387C479.132 332.956 479.403 332.36 479.426 331.729C479.448 331.098 479.221 330.484 478.792 330.021L471.196 321.711C470.976 321.47 470.709 321.276 470.41 321.143C470.112 321.009 469.79 320.939 469.463 320.936C469.136 320.933 468.812 320.997 468.512 321.124C468.211 321.252 467.94 321.44 467.715 321.677Z" fill="black"/>
<path opacity="0.1" d="M483.486 335.563L474.206 344.95C474.002 345.158 473.888 345.439 473.888 345.731C473.888 346.023 474.002 346.303 474.206 346.512L483.54 356.081C483.748 356.286 484.028 356.402 484.321 356.402C484.613 356.402 484.894 356.286 485.102 356.081L494.374 347.327C494.588 347.127 494.715 346.85 494.726 346.558C494.737 346.265 494.633 345.98 494.435 345.764L485.102 335.549C484.997 335.44 484.871 335.353 484.732 335.294C484.592 335.236 484.442 335.206 484.291 335.207C484.14 335.209 483.99 335.241 483.852 335.302C483.713 335.363 483.589 335.452 483.486 335.563Z" fill="black"/>
<path opacity="0.1" d="M496.617 348.714L487.337 358.101C487.133 358.31 487.019 358.59 487.019 358.882C487.019 359.174 487.133 359.454 487.337 359.663L496.671 369.232C496.879 369.438 497.159 369.553 497.452 369.553C497.744 369.553 498.025 369.438 498.233 369.232L507.505 360.478C507.719 360.278 507.846 360.002 507.857 359.709C507.868 359.417 507.764 359.132 507.566 358.916L498.24 348.714C498.136 348.603 498.01 348.514 497.87 348.454C497.731 348.393 497.58 348.362 497.428 348.362C497.276 348.362 497.126 348.393 496.986 348.454C496.846 348.514 496.721 348.603 496.617 348.714Z" fill="black"/>
<path opacity="0.1" d="M511.317 363.394L502.044 372.821C501.84 373.03 501.726 373.31 501.726 373.602C501.726 373.894 501.84 374.174 502.044 374.383L511.377 383.952C511.581 384.162 511.859 384.284 512.152 384.29C512.444 384.296 512.727 384.187 512.94 383.986L522.212 375.232C522.426 375.032 522.552 374.756 522.564 374.463C522.575 374.171 522.471 373.885 522.273 373.67L512.933 363.461C512.833 363.347 512.711 363.255 512.575 363.19C512.439 363.125 512.29 363.088 512.139 363.081C511.988 363.075 511.837 363.1 511.696 363.153C511.555 363.207 511.426 363.289 511.317 363.394Z" fill="black"/>
<path opacity="0.1" d="M525.566 377.669L516.286 387.03C516.082 387.238 515.968 387.519 515.968 387.811C515.968 388.103 516.082 388.383 516.286 388.592L525.62 398.161C525.823 398.371 526.101 398.492 526.394 398.499C526.686 398.505 526.969 398.396 527.182 398.194L536.454 389.44C536.668 389.24 536.795 388.964 536.806 388.672C536.817 388.379 536.713 388.094 536.515 387.878L527.195 377.669C527.092 377.556 526.966 377.466 526.826 377.404C526.685 377.342 526.534 377.311 526.38 377.311C526.227 377.311 526.076 377.342 525.935 377.404C525.795 377.466 525.669 377.556 525.566 377.669Z" fill="black"/>
<path opacity="0.1" d="M553.902 377.784L544.629 387.211C544.424 387.419 544.308 387.7 544.308 387.993C544.308 388.285 544.424 388.566 544.629 388.774L553.969 398.342C554.173 398.553 554.451 398.674 554.743 398.68C555.036 398.687 555.319 398.577 555.531 398.376L564.804 389.622C565.015 389.42 565.139 389.144 565.149 388.852C565.16 388.56 565.055 388.276 564.858 388.06L555.525 377.851C555.425 377.737 555.303 377.643 555.166 377.578C555.029 377.512 554.88 377.475 554.728 377.468C554.576 377.462 554.424 377.487 554.282 377.541C554.14 377.595 554.011 377.678 553.902 377.784Z" fill="black"/>
<path opacity="0.1" d="M568.144 392.033L558.845 401.42C558.639 401.628 558.524 401.908 558.524 402.201C558.524 402.493 558.639 402.774 558.845 402.982L568.205 412.551C568.408 412.761 568.686 412.883 568.979 412.889C569.271 412.895 569.554 412.786 569.767 412.585L579.039 403.831C579.251 403.629 579.375 403.352 579.385 403.06C579.395 402.768 579.29 402.484 579.093 402.268L569.76 392.06C569.658 391.948 569.534 391.858 569.396 391.796C569.258 391.734 569.109 391.7 568.958 391.698C568.807 391.695 568.656 391.724 568.516 391.781C568.376 391.839 568.25 391.924 568.144 392.033Z" fill="black"/>
<path opacity="0.1" d="M495.99 378.727L487.236 387.568C486.962 387.848 486.808 388.224 486.808 388.615C486.808 389.007 486.962 389.383 487.236 389.663L496.051 398.699C496.325 398.979 496.698 399.14 497.09 399.148C497.482 399.155 497.861 399.009 498.145 398.74L506.899 390.504C507.175 390.238 507.339 389.876 507.356 389.493C507.374 389.11 507.244 388.734 506.994 388.444L498.179 378.801C498.044 378.646 497.878 378.522 497.693 378.434C497.507 378.346 497.306 378.297 497.101 378.29C496.896 378.283 496.691 378.318 496.5 378.393C496.309 378.468 496.136 378.582 495.99 378.727Z" fill="black"/>
<path opacity="0.1" d="M510.233 392.969L501.479 401.81C501.204 402.09 501.051 402.466 501.051 402.858C501.051 403.249 501.204 403.625 501.479 403.905L510.293 412.942C510.567 413.221 510.94 413.382 511.332 413.39C511.724 413.397 512.103 413.251 512.387 412.982L521.142 404.746C521.427 404.478 521.595 404.108 521.61 403.716C521.625 403.324 521.486 402.942 521.222 402.652L512.381 393.009C512.244 392.863 512.079 392.747 511.896 392.665C511.713 392.584 511.515 392.541 511.315 392.537C511.115 392.533 510.916 392.569 510.73 392.644C510.544 392.718 510.375 392.828 510.233 392.969Z" fill="black"/>
<path opacity="0.1" d="M524.502 407.211L515.748 416.053C515.473 416.332 515.32 416.708 515.32 417.1C515.32 417.491 515.473 417.867 515.748 418.147L524.562 427.184C524.836 427.464 525.208 427.627 525.6 427.635C525.991 427.644 526.371 427.499 526.657 427.231L535.411 418.989C535.698 418.721 535.867 418.35 535.882 417.958C535.897 417.566 535.757 417.183 535.491 416.894L526.677 407.258C526.541 407.106 526.375 406.983 526.19 406.898C526.004 406.813 525.803 406.766 525.599 406.762C525.396 406.758 525.193 406.795 525.004 406.872C524.815 406.95 524.644 407.065 524.502 407.211Z" fill="black"/>
<path opacity="0.1" d="M539 421.17L529.727 430.564C529.523 430.773 529.409 431.053 529.409 431.345C529.409 431.637 529.523 431.918 529.727 432.126L539.067 441.695C539.275 441.901 539.556 442.016 539.848 442.016C540.141 442.016 540.421 441.901 540.629 441.695L549.902 432.941C550.115 432.74 550.24 432.464 550.25 432.171C550.26 431.879 550.154 431.594 549.956 431.379L540.623 421.17C540.518 421.06 540.392 420.972 540.253 420.912C540.113 420.852 539.963 420.821 539.811 420.821C539.659 420.821 539.509 420.852 539.37 420.912C539.23 420.972 539.104 421.06 539 421.17Z" fill="black"/>
<path opacity="0.1" d="M393.999 248.339L386.04 256.46C385.818 256.68 385.642 256.943 385.523 257.232C385.403 257.521 385.341 257.83 385.341 258.143C385.341 258.456 385.403 258.766 385.523 259.055C385.642 259.343 385.818 259.606 386.04 259.827L408.262 281.826C408.7 282.259 409.29 282.505 409.907 282.513C410.523 282.52 411.119 282.289 411.568 281.867L419.864 274.062C420.097 273.843 420.284 273.579 420.412 273.286C420.541 272.994 420.61 272.678 420.615 272.358C420.619 272.038 420.559 271.721 420.438 271.425C420.317 271.129 420.138 270.86 419.911 270.634L397.353 248.318C396.905 247.878 396.3 247.633 395.672 247.636C395.043 247.64 394.442 247.893 393.999 248.339Z" fill="black"/>
<path opacity="0.1" d="M539.458 391.999L529.727 401.911C529.522 402.123 529.408 402.405 529.408 402.699C529.408 402.993 529.522 403.276 529.727 403.487L553.707 427.224C553.914 427.426 554.192 427.538 554.481 427.538C554.77 427.538 555.048 427.426 555.255 427.224L565.397 417.682C565.505 417.578 565.59 417.454 565.649 417.316C565.708 417.179 565.738 417.03 565.738 416.881C565.738 416.731 565.708 416.583 565.649 416.445C565.59 416.308 565.505 416.183 565.397 416.079L541 391.945C540.785 391.754 540.505 391.653 540.218 391.663C539.931 391.673 539.659 391.794 539.458 391.999Z" fill="black"/>
<path opacity="0.1" d="M438.308 320.984L429.022 330.182C428.918 330.285 428.836 330.407 428.78 330.542C428.724 330.676 428.695 330.821 428.695 330.967C428.695 331.113 428.724 331.257 428.78 331.392C428.836 331.526 428.918 331.648 429.022 331.751L480.732 384.754C480.94 384.958 481.221 385.072 481.513 385.072C481.805 385.072 482.085 384.958 482.294 384.754L492.395 375.225C492.502 375.121 492.587 374.997 492.645 374.86C492.703 374.723 492.733 374.576 492.733 374.427C492.733 374.278 492.703 374.131 492.645 373.994C492.587 373.857 492.502 373.733 492.395 373.629L439.87 320.963C439.659 320.762 439.377 320.652 439.085 320.655C438.793 320.659 438.514 320.777 438.308 320.984Z" fill="black"/>
</g>
<path d="M422.234 219.255L414.74 226.831C414.302 227.275 414.057 227.874 414.057 228.497C414.057 229.121 414.302 229.719 414.74 230.164L422.335 237.955C422.773 238.41 423.374 238.672 424.005 238.685C424.636 238.698 425.247 238.459 425.702 238.022L433.163 230.979C433.617 230.55 433.884 229.96 433.907 229.337C433.929 228.713 433.706 228.106 433.285 227.645L425.689 219.336C425.472 219.096 425.209 218.902 424.915 218.767C424.621 218.632 424.302 218.559 423.979 218.551C423.656 218.544 423.334 218.602 423.034 218.723C422.734 218.844 422.462 219.025 422.234 219.255Z" fill="#464A5F"/>
<path d="M436.2 233.228L428.733 240.783C428.295 241.228 428.05 241.826 428.05 242.45C428.05 243.073 428.295 243.672 428.733 244.116L436.328 251.908C436.545 252.134 436.804 252.315 437.09 252.44C437.377 252.566 437.685 252.634 437.998 252.64C438.311 252.647 438.622 252.591 438.913 252.477C439.204 252.363 439.47 252.192 439.695 251.975L447.156 244.938C447.617 244.506 447.888 243.91 447.911 243.28C447.934 242.649 447.706 242.035 447.278 241.571L439.655 233.288C439.437 233.049 439.172 232.858 438.878 232.724C438.583 232.591 438.264 232.52 437.941 232.514C437.617 232.508 437.296 232.569 436.997 232.691C436.698 232.814 436.427 232.997 436.2 233.228Z" fill="#464A5F"/>
<path d="M450.867 247.887L443.399 255.45C442.963 255.895 442.719 256.493 442.719 257.116C442.719 257.739 442.963 258.337 443.399 258.783L450.988 266.56C451.426 267.015 452.026 267.278 452.658 267.29C453.289 267.303 453.899 267.065 454.355 266.628L461.816 259.584C462.046 259.371 462.231 259.115 462.362 258.831C462.492 258.546 462.565 258.239 462.576 257.926C462.587 257.613 462.537 257.301 462.427 257.008C462.318 256.715 462.151 256.446 461.937 256.217L454.341 247.908C454.12 247.668 453.853 247.477 453.554 247.345C453.256 247.214 452.934 247.145 452.609 247.143C452.283 247.141 451.96 247.206 451.66 247.334C451.361 247.462 451.091 247.651 450.867 247.887Z" fill="#464A5F"/>
<path d="M465.695 262.722L458.234 270.278C457.79 270.725 457.54 271.33 457.54 271.961C457.54 272.592 457.79 273.197 458.234 273.645L465.836 281.436C466.274 281.89 466.875 282.153 467.506 282.166C468.137 282.178 468.747 281.94 469.203 281.503L476.658 274.459C477.114 274.033 477.383 273.443 477.407 272.819C477.431 272.195 477.208 271.586 476.785 271.126L469.149 262.789C468.931 262.551 468.667 262.359 468.372 262.226C468.078 262.093 467.76 262.021 467.436 262.015C467.113 262.008 466.792 262.068 466.493 262.19C466.194 262.311 465.922 262.492 465.695 262.722Z" fill="#464A5F"/>
<path d="M480.53 277.557L473.068 285.112C472.623 285.559 472.372 286.165 472.372 286.796C472.372 287.427 472.623 288.032 473.068 288.479L480.671 296.264C481.108 296.719 481.708 296.983 482.339 296.997C482.97 297.011 483.581 296.774 484.038 296.338L491.492 289.294C491.723 289.082 491.91 288.827 492.041 288.542C492.173 288.258 492.247 287.95 492.259 287.637C492.271 287.324 492.22 287.012 492.111 286.718C492.001 286.425 491.834 286.156 491.62 285.927L484.024 277.618C483.805 277.373 483.538 277.177 483.24 277.04C482.942 276.904 482.618 276.83 482.29 276.825C481.962 276.819 481.636 276.881 481.333 277.007C481.03 277.133 480.757 277.32 480.53 277.557Z" fill="#464A5F"/>
<path d="M496.3 291.476L487.028 300.836C486.824 301.044 486.71 301.323 486.71 301.614C486.71 301.905 486.824 302.184 487.028 302.391L496.368 311.967C496.572 312.176 496.85 312.296 497.142 312.302C497.434 312.309 497.717 312.2 497.93 312.001L507.202 303.247C507.415 303.046 507.54 302.769 507.551 302.477C507.561 302.184 507.455 301.899 507.256 301.684L497.916 291.476C497.812 291.367 497.687 291.28 497.548 291.22C497.409 291.161 497.259 291.13 497.108 291.13C496.957 291.13 496.808 291.161 496.669 291.22C496.53 291.28 496.405 291.367 496.3 291.476Z" fill="#464A5F"/>
<path d="M511.135 306.29L501.862 315.684C501.659 315.892 501.545 316.171 501.545 316.462C501.545 316.753 501.659 317.032 501.862 317.24L511.202 326.815C511.411 327.019 511.692 327.133 511.983 327.133C512.275 327.133 512.556 327.019 512.765 326.815L522.037 318.061C522.25 317.86 522.375 317.584 522.385 317.291C522.395 316.999 522.29 316.714 522.091 316.499L512.751 306.29C512.647 306.181 512.521 306.094 512.382 306.035C512.244 305.976 512.094 305.945 511.943 305.945C511.792 305.945 511.643 305.976 511.504 306.035C511.365 306.094 511.239 306.181 511.135 306.29Z" fill="#464A5F"/>
<path d="M524.266 319.408L514.994 328.802C514.79 329.009 514.676 329.289 514.676 329.579C514.676 329.87 514.79 330.15 514.994 330.357L524.327 339.96C524.536 340.164 524.816 340.278 525.108 340.278C525.4 340.278 525.68 340.164 525.889 339.96L535.161 331.206C535.374 331.005 535.5 330.728 535.51 330.436C535.52 330.143 535.414 329.858 535.215 329.643L525.882 319.435C525.78 319.324 525.656 319.235 525.518 319.173C525.38 319.112 525.231 319.078 525.08 319.076C524.929 319.073 524.779 319.102 524.639 319.159C524.499 319.216 524.372 319.3 524.266 319.408Z" fill="#464A5F"/>
<path d="M538.973 334.115L529.7 343.502C529.495 343.71 529.379 343.99 529.379 344.283C529.379 344.575 529.495 344.856 529.7 345.064L539.04 354.633C539.244 354.843 539.522 354.964 539.814 354.971C540.107 354.977 540.39 354.868 540.602 354.667L549.875 345.912C550.086 345.711 550.21 345.434 550.22 345.142C550.23 344.85 550.126 344.566 549.929 344.35L540.596 334.135C540.493 334.023 540.368 333.934 540.229 333.872C540.09 333.81 539.94 333.778 539.789 333.776C539.637 333.774 539.486 333.803 539.346 333.861C539.206 333.92 539.079 334.006 538.973 334.115Z" fill="#464A5F"/>
<path d="M553.215 348.357L543.942 357.744C543.737 357.952 543.622 358.233 543.622 358.525C543.622 358.818 543.737 359.098 543.942 359.306L553.276 368.915C553.484 369.119 553.765 369.234 554.057 369.234C554.349 369.234 554.629 369.119 554.838 368.915L564.11 360.161C564.322 359.96 564.446 359.683 564.456 359.391C564.466 359.099 564.361 358.815 564.164 358.599L554.804 348.391C554.702 348.283 554.58 348.197 554.445 348.137C554.31 348.078 554.164 348.045 554.017 348.042C553.869 348.039 553.722 348.065 553.584 348.119C553.447 348.173 553.321 348.254 553.215 348.357Z" fill="#464A5F"/>
<path d="M567.457 362.599L558.185 372.026C557.981 372.234 557.867 372.513 557.867 372.804C557.867 373.095 557.981 373.374 558.185 373.582L567.525 383.158C567.733 383.362 568.014 383.476 568.306 383.476C568.598 383.476 568.878 383.362 569.087 383.158L578.359 374.404C578.572 374.203 578.697 373.926 578.707 373.633C578.718 373.341 578.612 373.056 578.413 372.841L569.08 362.633C568.978 362.52 568.854 362.43 568.716 362.367C568.577 362.304 568.428 362.27 568.276 362.267C568.124 362.264 567.973 362.291 567.832 362.349C567.692 362.406 567.564 362.491 567.457 362.599Z" fill="#464A5F"/>
<path d="M581.699 376.841L572.427 386.269C572.223 386.477 572.109 386.758 572.109 387.05C572.109 387.342 572.223 387.622 572.427 387.831L581.74 397.366C581.949 397.57 582.229 397.684 582.521 397.684C582.813 397.684 583.093 397.57 583.302 397.366L592.575 388.612C592.787 388.411 592.913 388.134 592.923 387.842C592.933 387.549 592.827 387.265 592.628 387.05L583.295 376.841C583.191 376.735 583.067 376.651 582.93 376.593C582.793 376.536 582.646 376.506 582.497 376.506C582.349 376.506 582.202 376.536 582.065 376.593C581.928 376.651 581.803 376.735 581.699 376.841Z" fill="#464A5F"/>
<path d="M408.679 232.817L401.218 240.372C400.781 240.817 400.536 241.416 400.536 242.039C400.536 242.663 400.781 243.261 401.218 243.706L408.82 251.497C409.037 251.723 409.296 251.904 409.582 252.03C409.869 252.155 410.177 252.223 410.49 252.23C410.803 252.236 411.114 252.18 411.405 252.066C411.696 251.952 411.962 251.781 412.187 251.564L419.642 244.527C420.105 244.098 420.379 243.502 420.403 242.87C420.427 242.239 420.199 241.624 419.77 241.16L412.127 232.891C411.909 232.653 411.646 232.462 411.352 232.329C411.059 232.196 410.741 232.123 410.419 232.116C410.096 232.11 409.776 232.168 409.477 232.288C409.178 232.409 408.907 232.589 408.679 232.817Z" fill="#464A5F"/>
<path d="M379.05 262.439L371.582 269.995C371.136 270.442 370.886 271.047 370.886 271.678C370.886 272.309 371.136 272.915 371.582 273.362L379.185 281.146C379.619 281.593 380.213 281.852 380.836 281.865C381.46 281.879 382.064 281.648 382.518 281.22L389.979 274.176C390.441 273.746 390.714 273.149 390.736 272.518C390.759 271.887 390.53 271.272 390.1 270.81L382.498 262.52C382.282 262.28 382.019 262.087 381.725 261.952C381.432 261.817 381.114 261.744 380.791 261.736C380.468 261.728 380.147 261.787 379.848 261.908C379.549 262.029 379.277 262.21 379.05 262.439Z" fill="#464A5F"/>
<path d="M422.645 246.783L415.177 254.339C414.74 254.783 414.495 255.382 414.495 256.005C414.495 256.629 414.74 257.227 415.177 257.672L422.773 265.463C422.989 265.689 423.248 265.87 423.535 265.996C423.821 266.121 424.13 266.189 424.443 266.196C424.755 266.202 425.066 266.146 425.358 266.032C425.649 265.918 425.915 265.747 426.14 265.53L433.594 258.48C434.055 258.048 434.326 257.452 434.349 256.821C434.372 256.191 434.144 255.576 433.716 255.113L426.12 246.81C425.9 246.569 425.632 246.376 425.335 246.244C425.037 246.111 424.714 246.041 424.388 246.039C424.062 246.036 423.739 246.101 423.439 246.229C423.139 246.357 422.869 246.546 422.645 246.783Z" fill="#464A5F"/>
<path d="M437.305 261.443L429.844 269.005C429.406 269.449 429.161 270.048 429.161 270.672C429.161 271.295 429.406 271.894 429.844 272.338L437.446 280.129C437.663 280.355 437.921 280.536 438.208 280.662C438.494 280.788 438.803 280.856 439.116 280.862C439.428 280.868 439.739 280.813 440.031 280.699C440.322 280.584 440.588 280.414 440.813 280.197L448.267 273.16C448.731 272.73 449.004 272.134 449.028 271.503C449.052 270.871 448.825 270.256 448.395 269.793L440.759 261.51C440.541 261.272 440.276 261.082 439.982 260.949C439.687 260.816 439.369 260.745 439.046 260.738C438.724 260.732 438.403 260.791 438.103 260.912C437.804 261.033 437.532 261.214 437.305 261.443Z" fill="#464A5F"/>
<path d="M452.139 276.277L444.678 283.84C444.241 284.284 443.996 284.883 443.996 285.506C443.996 286.13 444.241 286.728 444.678 287.173L452.281 294.964C452.717 295.41 453.31 295.667 453.934 295.68C454.557 295.693 455.161 295.46 455.614 295.031L463.075 287.994C463.538 287.565 463.812 286.969 463.836 286.337C463.86 285.706 463.632 285.091 463.203 284.627L455.607 276.318C455.387 276.079 455.121 275.888 454.824 275.756C454.527 275.623 454.207 275.553 453.882 275.55C453.557 275.546 453.235 275.608 452.936 275.734C452.636 275.859 452.365 276.044 452.139 276.277Z" fill="#464A5F"/>
<path d="M393.494 275.934L386.026 283.489C385.589 283.934 385.344 284.533 385.344 285.156C385.344 285.78 385.589 286.378 386.026 286.823L393.622 294.614C393.838 294.84 394.097 295.021 394.384 295.147C394.67 295.272 394.979 295.34 395.292 295.347C395.604 295.353 395.915 295.297 396.207 295.183C396.498 295.069 396.764 294.898 396.989 294.681L404.45 287.644C404.911 287.213 405.182 286.617 405.205 285.986C405.227 285.355 405 284.741 404.571 284.277L396.942 275.988C396.724 275.75 396.46 275.558 396.165 275.426C395.871 275.293 395.552 275.222 395.23 275.217C394.907 275.212 394.586 275.273 394.288 275.397C393.989 275.52 393.719 275.703 393.494 275.934Z" fill="#464A5F"/>
<path d="M408.154 290.594L400.693 298.156C400.256 298.6 400.011 299.199 400.011 299.822C400.011 300.446 400.256 301.045 400.693 301.489L408.295 309.28C408.733 309.735 409.334 309.998 409.965 310.01C410.596 310.023 411.206 309.784 411.662 309.348L419.117 302.311C419.58 301.881 419.853 301.285 419.877 300.654C419.901 300.022 419.674 299.407 419.245 298.944L411.649 290.634C411.428 290.391 411.16 290.196 410.861 290.061C410.562 289.927 410.238 289.855 409.91 289.851C409.582 289.848 409.257 289.912 408.955 290.039C408.652 290.167 408.38 290.356 408.154 290.594Z" fill="#464A5F"/>
<path d="M422.989 305.428L415.527 313.024C415.09 313.469 414.845 314.067 414.845 314.691C414.845 315.314 415.09 315.913 415.527 316.358L423.13 324.149C423.568 324.603 424.168 324.866 424.799 324.879C425.431 324.891 426.041 324.653 426.497 324.216L433.951 317.172C434.407 316.746 434.677 316.156 434.701 315.532C434.725 314.908 434.501 314.299 434.079 313.839L426.483 305.529C426.267 305.282 426.003 305.083 425.706 304.943C425.409 304.803 425.086 304.726 424.758 304.716C424.43 304.707 424.103 304.765 423.799 304.888C423.494 305.01 423.219 305.194 422.989 305.428Z" fill="#464A5F"/>
<path d="M466.974 291.112L459.513 298.674C459.076 299.119 458.831 299.717 458.831 300.341C458.831 300.965 459.076 301.563 459.513 302.008L467.116 309.799C467.332 310.025 467.591 310.206 467.877 310.332C468.164 310.457 468.472 310.525 468.785 310.531C469.098 310.538 469.409 310.482 469.7 310.368C469.991 310.254 470.257 310.083 470.483 309.866L477.944 302.822C478.174 302.61 478.36 302.354 478.491 302.07C478.622 301.785 478.695 301.477 478.707 301.164C478.718 300.851 478.667 300.539 478.557 300.246C478.447 299.952 478.279 299.684 478.065 299.455L470.469 291.146C470.249 290.902 469.98 290.707 469.681 290.572C469.382 290.438 469.057 290.367 468.729 290.363C468.401 290.36 468.075 290.425 467.773 290.554C467.471 290.683 467.199 290.873 466.974 291.112Z" fill="#464A5F"/>
<path d="M481.809 305.947L474.341 313.509C473.904 313.954 473.659 314.552 473.659 315.176C473.659 315.799 473.904 316.398 474.341 316.842L481.944 324.633C482.16 324.859 482.419 325.04 482.705 325.166C482.992 325.292 483.3 325.36 483.613 325.366C483.926 325.372 484.237 325.317 484.528 325.203C484.819 325.088 485.085 324.918 485.311 324.701L492.772 317.657C493.227 317.23 493.495 316.64 493.518 316.015C493.541 315.391 493.316 314.783 492.893 314.324L485.297 306.014C485.079 305.77 484.813 305.573 484.516 305.436C484.218 305.299 483.895 305.225 483.568 305.218C483.24 305.212 482.915 305.274 482.612 305.399C482.31 305.524 482.036 305.711 481.809 305.947Z" fill="#464A5F"/>
<path d="M497.566 319.832L488.294 329.226C488.088 329.434 487.973 329.715 487.973 330.007C487.973 330.3 488.088 330.58 488.294 330.788L497.634 340.357C497.842 340.563 498.122 340.678 498.415 340.678C498.707 340.678 498.988 340.563 499.196 340.357L508.468 331.603C508.68 331.401 508.804 331.125 508.814 330.833C508.824 330.541 508.719 330.257 508.522 330.041L499.189 319.832C499.085 319.722 498.959 319.634 498.819 319.574C498.68 319.514 498.53 319.483 498.378 319.483C498.226 319.483 498.076 319.514 497.936 319.574C497.797 319.634 497.671 319.722 497.566 319.832Z" fill="#464A5F"/>
<path d="M510.711 332.963L501.438 342.357C501.233 342.565 501.117 342.846 501.117 343.138C501.117 343.431 501.233 343.711 501.438 343.919L510.778 353.488C510.986 353.694 511.267 353.809 511.559 353.809C511.852 353.809 512.132 353.694 512.34 353.488L521.613 344.734C521.824 344.532 521.948 344.256 521.958 343.964C521.968 343.672 521.864 343.388 521.667 343.172L512.334 332.963C512.229 332.853 512.103 332.765 511.964 332.705C511.824 332.645 511.674 332.614 511.522 332.614C511.37 332.614 511.22 332.645 511.081 332.705C510.941 332.765 510.815 332.853 510.711 332.963Z" fill="#464A5F"/>
<path d="M525.418 347.67L516.138 357.064C515.935 357.271 515.821 357.551 515.821 357.842C515.821 358.132 515.935 358.412 516.138 358.619L525.471 368.195C525.68 368.399 525.961 368.513 526.252 368.513C526.544 368.513 526.825 368.399 527.034 368.195L536.306 359.441C536.52 359.241 536.646 358.965 536.658 358.672C536.669 358.38 536.565 358.094 536.367 357.879L527.034 347.704C526.932 347.592 526.808 347.503 526.67 347.44C526.533 347.378 526.384 347.344 526.233 347.341C526.082 347.338 525.932 347.366 525.791 347.422C525.651 347.479 525.524 347.563 525.418 347.67Z" fill="#464A5F"/>
<path d="M539.66 361.912L530.387 371.306C530.182 371.514 530.066 371.795 530.066 372.087C530.066 372.38 530.182 372.66 530.387 372.868L539.72 382.437C539.93 382.642 540.212 382.756 540.505 382.756C540.798 382.756 541.079 382.642 541.289 382.437L550.555 373.683C550.769 373.483 550.895 373.207 550.907 372.914C550.918 372.622 550.813 372.337 550.616 372.121L541.283 361.912C541.178 361.802 541.052 361.714 540.913 361.654C540.773 361.594 540.623 361.563 540.471 361.563C540.319 361.563 540.169 361.594 540.029 361.654C539.89 361.714 539.764 361.802 539.66 361.912Z" fill="#464A5F"/>
<path d="M423.211 275.543L415.743 283.099C415.306 283.543 415.061 284.142 415.061 284.766C415.061 285.389 415.306 285.988 415.743 286.432L423.345 294.223C423.561 294.45 423.82 294.632 424.107 294.758C424.393 294.884 424.702 294.953 425.015 294.959C425.328 294.965 425.639 294.909 425.93 294.795C426.222 294.68 426.488 294.509 426.712 294.291L434.173 287.254C434.636 286.823 434.908 286.227 434.931 285.595C434.954 284.964 434.725 284.349 434.295 283.887L426.659 275.611C426.442 275.372 426.178 275.179 425.884 275.046C425.59 274.912 425.272 274.84 424.949 274.833C424.626 274.827 424.306 274.887 424.007 275.009C423.708 275.131 423.437 275.313 423.211 275.543Z" fill="#464A5F"/>
<path d="M438.045 290.378L430.578 297.934C430.356 298.154 430.18 298.417 430.06 298.706C429.94 298.995 429.879 299.304 429.879 299.617C429.879 299.93 429.94 300.24 430.06 300.528C430.18 300.817 430.356 301.08 430.578 301.301L438.18 309.092C438.396 309.318 438.655 309.5 438.941 309.626C439.228 309.753 439.537 309.821 439.85 309.827C440.163 309.833 440.474 309.778 440.765 309.663C441.057 309.548 441.322 309.377 441.547 309.159L449.008 302.122C449.469 301.691 449.74 301.094 449.763 300.464C449.785 299.833 449.558 299.219 449.129 298.755L441.534 290.452C441.317 290.206 441.051 290.008 440.754 289.87C440.456 289.732 440.134 289.657 439.806 289.65C439.478 289.643 439.152 289.704 438.849 289.829C438.546 289.955 438.273 290.142 438.045 290.378Z" fill="#464A5F"/>
<path d="M452.88 305.213L445.412 312.768C444.975 313.213 444.73 313.811 444.73 314.435C444.73 315.058 444.975 315.657 445.412 316.102L453.008 323.893C453.225 324.119 453.483 324.3 453.77 324.426C454.056 324.551 454.365 324.619 454.678 324.625C454.99 324.632 455.301 324.576 455.593 324.462C455.884 324.348 456.15 324.177 456.375 323.96L463.836 316.923C464.297 316.492 464.568 315.895 464.591 315.265C464.613 314.634 464.386 314.02 463.957 313.556L456.362 305.247C456.141 305.005 455.874 304.812 455.576 304.678C455.277 304.545 454.955 304.475 454.628 304.471C454.302 304.468 453.978 304.532 453.677 304.66C453.376 304.788 453.105 304.976 452.88 305.213Z" fill="#464A5F"/>
<path d="M467.715 320.041L460.247 327.603C460.026 327.824 459.85 328.086 459.73 328.375C459.61 328.664 459.548 328.974 459.548 329.287C459.548 329.599 459.61 329.909 459.73 330.198C459.85 330.487 460.026 330.749 460.247 330.97L467.843 338.761C468.059 338.987 468.318 339.168 468.605 339.294C468.891 339.42 469.2 339.488 469.512 339.494C469.825 339.5 470.136 339.445 470.427 339.33C470.719 339.216 470.985 339.046 471.21 338.828L478.671 331.792C479.132 331.36 479.403 330.764 479.426 330.133C479.448 329.502 479.221 328.888 478.792 328.425L471.196 320.115C470.979 319.872 470.713 319.676 470.416 319.54C470.12 319.403 469.798 319.33 469.472 319.323C469.145 319.316 468.821 319.376 468.519 319.499C468.217 319.623 467.943 319.807 467.715 320.041Z" fill="#464A5F"/>
<path d="M483.486 333.933L474.206 343.327C474.002 343.536 473.888 343.816 473.888 344.108C473.888 344.4 474.002 344.68 474.206 344.889L483.54 354.458C483.743 354.668 484.021 354.789 484.314 354.796C484.606 354.802 484.889 354.693 485.102 354.491L494.374 345.737C494.589 345.536 494.715 345.259 494.727 344.965C494.738 344.672 494.633 344.385 494.435 344.168L485.102 333.96C485 333.848 484.876 333.758 484.738 333.696C484.6 333.634 484.451 333.6 484.3 333.598C484.148 333.595 483.998 333.624 483.858 333.681C483.718 333.739 483.591 333.825 483.486 333.933Z" fill="#464A5F"/>
<path d="M496.617 347.064L487.337 356.451C487.133 356.66 487.019 356.94 487.019 357.232C487.019 357.524 487.133 357.804 487.337 358.013L496.671 367.569C496.874 367.779 497.152 367.9 497.445 367.907C497.737 367.913 498.021 367.803 498.233 367.602L507.505 358.848C507.72 358.647 507.846 358.37 507.858 358.076C507.869 357.783 507.764 357.496 507.566 357.279L498.24 347.091C498.138 346.978 498.013 346.887 497.875 346.824C497.736 346.762 497.586 346.728 497.434 346.725C497.282 346.723 497.131 346.752 496.99 346.81C496.85 346.868 496.723 346.955 496.617 347.064Z" fill="#464A5F"/>
<path d="M511.317 361.764L502.044 371.191C501.84 371.4 501.726 371.681 501.726 371.973C501.726 372.265 501.84 372.545 502.044 372.754L511.377 382.323C511.585 382.528 511.866 382.644 512.159 382.644C512.451 382.644 512.732 382.528 512.94 382.323L522.212 373.569C522.426 373.369 522.552 373.092 522.564 372.8C522.575 372.507 522.471 372.222 522.273 372.006L512.933 361.798C512.831 361.686 512.707 361.597 512.57 361.535C512.432 361.472 512.283 361.438 512.132 361.435C511.981 361.432 511.831 361.46 511.691 361.516C511.551 361.573 511.423 361.657 511.317 361.764Z" fill="#464A5F"/>
<path d="M525.566 376.013L516.286 385.4C516.082 385.609 515.968 385.889 515.968 386.181C515.968 386.473 516.082 386.753 516.286 386.962L525.62 396.524C525.828 396.73 526.108 396.845 526.401 396.845C526.693 396.845 526.974 396.73 527.182 396.524L536.454 387.77C536.668 387.57 536.795 387.294 536.806 387.002C536.817 386.709 536.713 386.424 536.515 386.208L527.195 376.04C527.094 375.925 526.969 375.833 526.83 375.768C526.691 375.704 526.54 375.67 526.386 375.667C526.233 375.665 526.081 375.694 525.94 375.754C525.798 375.813 525.671 375.902 525.566 376.013Z" fill="#464A5F"/>
<path d="M553.902 376.154L544.629 385.582C544.424 385.79 544.308 386.07 544.308 386.363C544.308 386.655 544.424 386.936 544.629 387.144L553.969 396.713C554.177 396.919 554.458 397.034 554.75 397.034C555.043 397.034 555.323 396.919 555.531 396.713L564.804 387.959C565.015 387.757 565.139 387.481 565.149 387.189C565.159 386.897 565.055 386.612 564.858 386.397L555.518 376.188C555.416 376.077 555.292 375.987 555.155 375.925C555.017 375.863 554.868 375.829 554.717 375.826C554.566 375.822 554.416 375.85 554.276 375.906C554.136 375.963 554.008 376.047 553.902 376.154Z" fill="#464A5F"/>
<path d="M568.144 390.396L558.871 399.824C558.666 400.032 558.551 400.313 558.551 400.605C558.551 400.897 558.666 401.178 558.871 401.386L568.211 410.955C568.419 411.161 568.7 411.276 568.992 411.276C569.285 411.276 569.566 411.161 569.774 410.955L579.046 402.201C579.258 401.999 579.381 401.723 579.392 401.431C579.402 401.139 579.297 400.854 579.1 400.639L569.76 390.464C569.66 390.35 569.539 390.258 569.402 390.193C569.266 390.127 569.118 390.091 568.966 390.084C568.815 390.078 568.665 390.102 568.523 390.156C568.382 390.21 568.253 390.292 568.144 390.396Z" fill="#464A5F"/>
<path d="M495.99 377.097L487.236 385.939C486.962 386.218 486.808 386.594 486.808 386.986C486.808 387.377 486.962 387.753 487.236 388.033L496.051 397.07C496.325 397.35 496.698 397.511 497.09 397.518C497.482 397.526 497.861 397.379 498.145 397.11L506.899 388.875C507.183 388.605 507.35 388.235 507.366 387.844C507.381 387.453 507.242 387.071 506.98 386.78L498.166 377.138C498.028 376.988 497.862 376.867 497.676 376.784C497.491 376.7 497.29 376.655 497.087 376.651C496.883 376.647 496.681 376.685 496.493 376.762C496.304 376.838 496.133 376.952 495.99 377.097Z" fill="#464A5F"/>
<path d="M510.233 391.339L501.479 400.181C501.204 400.46 501.051 400.836 501.051 401.228C501.051 401.62 501.204 401.996 501.479 402.275L510.313 411.339C510.592 411.605 510.962 411.754 511.347 411.754C511.732 411.754 512.103 411.605 512.381 411.339L521.135 403.103C521.42 402.835 521.589 402.464 521.604 402.073C521.619 401.681 521.479 401.299 521.216 401.009L512.381 391.38C512.244 391.234 512.079 391.117 511.896 391.036C511.713 390.955 511.515 390.911 511.315 390.907C511.115 390.903 510.916 390.94 510.73 391.014C510.544 391.088 510.375 391.199 510.233 391.339Z" fill="#464A5F"/>
<path d="M524.502 405.581L515.748 414.423C515.473 414.703 515.32 415.078 515.32 415.47C515.32 415.862 515.473 416.238 515.748 416.517L524.562 425.554C524.836 425.835 525.209 425.998 525.601 426.005C525.993 426.013 526.373 425.865 526.657 425.594L535.411 417.359C535.698 417.091 535.867 416.721 535.882 416.328C535.897 415.936 535.757 415.554 535.491 415.265L526.677 405.622C526.54 405.471 526.373 405.35 526.188 405.266C526.002 405.181 525.802 405.136 525.598 405.132C525.394 405.128 525.192 405.166 525.003 405.244C524.815 405.321 524.644 405.436 524.502 405.581Z" fill="#464A5F"/>
<path d="M539 419.541L529.727 428.968C529.523 429.177 529.409 429.457 529.409 429.749C529.409 430.041 529.523 430.322 529.727 430.53L539.067 440.099C539.272 440.308 539.549 440.428 539.841 440.434C540.133 440.441 540.416 440.333 540.629 440.133L549.902 431.379C550.115 431.178 550.24 430.901 550.25 430.609C550.26 430.316 550.154 430.032 549.956 429.817L540.623 419.608C540.523 419.493 540.401 419.4 540.264 419.334C540.127 419.268 539.978 419.231 539.826 419.225C539.674 419.219 539.522 419.243 539.38 419.298C539.238 419.352 539.109 419.435 539 419.541Z" fill="#464A5F"/>
<path d="M393.999 246.709L386.04 254.837C385.818 255.058 385.642 255.32 385.523 255.609C385.403 255.898 385.341 256.207 385.341 256.52C385.341 256.833 385.403 257.143 385.523 257.432C385.642 257.721 385.818 257.983 386.04 258.204L408.262 280.203C408.7 280.636 409.29 280.882 409.907 280.89C410.523 280.898 411.119 280.666 411.568 280.244L419.864 272.439C420.097 272.22 420.284 271.956 420.412 271.664C420.541 271.371 420.61 271.055 420.615 270.735C420.619 270.416 420.559 270.098 420.438 269.802C420.317 269.506 420.138 269.237 419.911 269.012L397.353 246.696C396.905 246.254 396.302 246.008 395.673 246.01C395.045 246.013 394.443 246.264 393.999 246.709Z" fill="#464A5F"/>
<path d="M539.458 390.37L529.727 400.302C529.522 400.513 529.408 400.796 529.408 401.09C529.408 401.384 529.522 401.667 529.727 401.878L553.707 425.615C553.914 425.816 554.192 425.929 554.481 425.929C554.77 425.929 555.048 425.816 555.255 425.615L565.397 416.073C565.505 415.969 565.59 415.845 565.649 415.707C565.708 415.569 565.738 415.421 565.738 415.272C565.738 415.122 565.708 414.974 565.649 414.836C565.59 414.698 565.505 414.574 565.397 414.47L541 390.336C540.788 390.141 540.51 390.035 540.222 390.042C539.934 390.048 539.66 390.165 539.458 390.37Z" fill="#464A5F"/>
<path d="M438.308 319.354L429.022 328.553C428.918 328.655 428.836 328.777 428.78 328.912C428.724 329.047 428.695 329.191 428.695 329.337C428.695 329.483 428.724 329.627 428.78 329.762C428.836 329.897 428.918 330.019 429.022 330.122L480.732 383.124C480.94 383.328 481.221 383.442 481.513 383.442C481.805 383.442 482.085 383.328 482.294 383.124L492.395 373.595C492.502 373.492 492.587 373.368 492.645 373.231C492.703 373.094 492.733 372.946 492.733 372.798C492.733 372.649 492.703 372.501 492.645 372.364C492.587 372.227 492.502 372.103 492.395 372L439.87 319.334C439.659 319.133 439.377 319.022 439.085 319.026C438.793 319.03 438.514 319.147 438.308 319.354Z" fill="#464A5F"/>
<path opacity="0.1" d="M401.831 325.819L361.003 366.377C359.872 367.502 359.23 369.029 359.217 370.625C359.205 372.222 359.822 373.758 360.936 374.902L436.45 452.449C437.006 453.021 437.671 453.478 438.405 453.793C439.139 454.107 439.928 454.274 440.726 454.282C441.525 454.291 442.317 454.142 443.058 453.844C443.798 453.545 444.473 453.103 445.042 452.543L487.082 411.191C487.651 410.63 488.103 409.962 488.413 409.225C488.723 408.488 488.885 407.697 488.888 406.898C488.891 406.099 488.736 405.307 488.432 404.568C488.127 403.829 487.68 403.157 487.115 402.592L410.389 325.819C409.253 324.686 407.714 324.05 406.11 324.05C404.506 324.05 402.967 324.686 401.831 325.819Z" fill="black"/>
<path d="M401.831 324.155L361.003 364.747C359.872 365.873 359.23 367.4 359.217 368.996C359.205 370.592 359.822 372.129 360.936 373.272L436.45 450.82C437.006 451.392 437.671 451.848 438.405 452.163C439.139 452.478 439.928 452.644 440.726 452.653C441.525 452.662 442.317 452.512 443.058 452.214C443.798 451.916 444.473 451.474 445.042 450.914L487.082 409.561C487.651 409 488.103 408.332 488.413 407.595C488.723 406.859 488.885 406.068 488.888 405.269C488.891 404.469 488.736 403.677 488.432 402.938C488.127 402.199 487.68 401.527 487.115 400.962L410.389 324.196C409.259 323.057 407.723 322.414 406.118 322.406C404.514 322.399 402.972 323.028 401.831 324.155Z" fill="#939498"/>
<path d="M441.049 111.318L430.712 183.586L622.237 374.498L631.988 302.863C632.25 300.929 632.061 298.96 631.436 297.111C630.811 295.262 629.767 293.582 628.385 292.203L445.298 109.89C444.968 109.562 444.553 109.331 444.1 109.225C443.647 109.119 443.173 109.142 442.732 109.29C442.291 109.438 441.899 109.706 441.602 110.065C441.305 110.423 441.113 110.857 441.049 111.318Z" fill="#15BDDB"/>
<path opacity="0.1" d="M198.71 461.621C207.305 461.621 214.272 460.665 214.272 459.486C214.272 458.307 207.305 457.351 198.71 457.351C190.115 457.351 183.148 458.307 183.148 459.486C183.148 460.665 190.115 461.621 198.71 461.621Z" fill="#15BDDB"/>
<path opacity="0.1" d="M139.088 467.668C147.683 467.668 154.65 466.712 154.65 465.533C154.65 464.354 147.683 463.398 139.088 463.398C130.494 463.398 123.526 464.354 123.526 465.533C123.526 466.712 130.494 467.668 139.088 467.668Z" fill="#15BDDB"/>
<path opacity="0.1" d="M68.8674 459.486C77.462 459.486 84.4294 458.53 84.4294 457.351C84.4294 456.173 77.462 455.217 68.8674 455.217C60.2727 455.217 53.3054 456.173 53.3054 457.351C53.3054 458.53 60.2727 459.486 68.8674 459.486Z" fill="#15BDDB"/>
<path opacity="0.1" d="M162.953 484.267C169.063 484.267 174.017 483.585 174.017 482.745C174.017 481.904 169.063 481.223 162.953 481.223C156.843 481.223 151.889 481.904 151.889 482.745C151.889 483.585 156.843 484.267 162.953 484.267Z" fill="#15BDDB"/>
<path opacity="0.1" d="M101.075 482.745C107.186 482.745 112.139 482.064 112.139 481.223C112.139 480.383 107.186 479.701 101.075 479.701C94.9651 479.701 90.0117 480.383 90.0117 481.223C90.0117 482.064 94.9651 482.745 101.075 482.745Z" fill="#15BDDB"/>
<path d="M138.758 465.055C138.758 465.055 160.583 393.501 135.337 364.875C116.483 343.434 95.0217 346.02 85.4192 348.653C82.9362 349.314 80.6266 350.507 78.65 352.149C76.6734 353.79 75.0771 355.842 73.9716 358.161C70.6047 365.407 71.2242 377.158 94.914 390.875C134.59 413.844 137.055 445.352 137.055 445.352L138.758 465.055Z" fill="#15BDDB"/>
<path d="M88.8199 358.767C88.8199 358.767 153.169 378.882 138.745 465.055" stroke="#565987" stroke-miterlimit="10"/>
<path d="M126.415 365.979C126.415 365.979 117.56 371.946 120.355 380.922" stroke="#565987" stroke-miterlimit="10"/>
<path d="M95.2911 371.293C95.2911 371.293 100.678 365.784 107.298 368.821" stroke="#565987" stroke-miterlimit="10"/>
<path d="M120.725 399.002C120.725 399.002 130.233 394.174 132.698 400.221" stroke="#565987" stroke-miterlimit="10"/>
<path d="M144.26 409.063C144.26 409.063 137.115 408.497 136.987 411.911" stroke="#565987" stroke-miterlimit="10"/>
<path d="M139.64 465.627C139.64 465.627 114.052 413.622 107.048 414.76C103.715 415.298 102.18 418.578 101.486 421.877C100.626 426.139 101.111 430.563 102.873 434.537C106.503 442.86 116.247 458.665 139.64 465.627Z" fill="#15BDDB"/>
<path d="M107.244 424.625C107.244 424.625 134.072 463.54 139.257 465.244" stroke="#565987" stroke-miterlimit="10"/>
<path d="M104.772 430.699H111.035" stroke="#565987" stroke-miterlimit="10"/>
<path d="M112.274 444.934L122.092 445.352" stroke="#565987" stroke-miterlimit="10"/>
<path d="M118.247 433.547L117.183 438.658" stroke="#565987" stroke-miterlimit="10"/>
<path d="M128.691 449.109L128.496 453.756" stroke="#565987" stroke-miterlimit="10"/>
<path d="M138.88 465.627C138.88 465.627 164.468 413.622 171.465 414.76C174.832 415.298 176.34 418.578 177.034 421.877C177.895 426.14 177.408 430.564 175.64 434.537C172.017 442.86 162.273 458.665 138.88 465.627Z" fill="#15BDDB"/>
<path d="M171.276 424.625C171.276 424.625 144.442 463.54 139.257 465.244" stroke="#565987" stroke-miterlimit="10"/>
<path d="M173.741 430.699H167.478" stroke="#565987" stroke-miterlimit="10"/>
<path d="M166.239 444.934L156.421 445.352" stroke="#565987" stroke-miterlimit="10"/>
<path d="M160.266 433.547L161.33 438.658" stroke="#565987" stroke-miterlimit="10"/>
<path d="M149.829 449.109L150.017 453.756" stroke="#565987" stroke-miterlimit="10"/>
<path d="M94.9813 477.769C94.2843 477.202 93.7768 476.436 93.5268 475.573C93.4149 475.141 93.4547 474.683 93.6398 474.276C93.8249 473.869 94.1439 473.538 94.5436 473.338C95.4797 472.981 96.4763 473.627 97.2372 474.28C97.9981 474.934 98.8668 475.681 99.8567 475.546C99.3466 475.085 98.9649 474.5 98.7489 473.847C98.5329 473.194 98.49 472.497 98.6244 471.823C98.6653 471.542 98.7843 471.278 98.9678 471.062C99.4863 470.509 100.422 470.745 101.042 471.183C103.022 472.57 103.567 475.223 103.581 477.668C103.691 476.774 103.702 475.87 103.614 474.974C103.577 474.528 103.649 474.08 103.824 473.668C103.998 473.256 104.271 472.893 104.618 472.61C105.087 472.361 105.614 472.238 106.146 472.254C106.584 472.185 107.032 472.209 107.46 472.325C107.889 472.441 108.287 472.646 108.631 472.927C109.385 473.735 109.19 475.082 108.53 475.971C107.8 476.8 106.932 477.497 105.964 478.031C105.227 478.468 104.598 479.066 104.126 479.782C104.072 479.881 104.027 479.985 103.991 480.092H98.4291C97.1809 479.475 96.0212 478.694 94.9813 477.769Z" fill="#15BDDB"/>
<path d="M192.4 456.826C191.703 456.259 191.193 455.493 190.939 454.631C190.828 454.198 190.869 453.741 191.054 453.334C191.239 452.927 191.557 452.596 191.956 452.395C192.892 452.038 193.889 452.685 194.649 453.338C195.41 453.991 196.272 454.739 197.262 454.597C196.753 454.135 196.372 453.55 196.156 452.897C195.94 452.245 195.897 451.548 196.03 450.873C196.075 450.596 196.194 450.336 196.373 450.119C196.892 449.56 197.828 449.803 198.454 450.24C200.427 451.628 200.979 454.281 200.986 456.718C201.099 455.825 201.113 454.921 201.026 454.025C200.984 453.579 201.053 453.129 201.228 452.716C201.404 452.303 201.679 451.941 202.03 451.661C202.498 451.407 203.026 451.284 203.558 451.304C203.996 451.237 204.442 451.262 204.869 451.378C205.296 451.494 205.693 451.699 206.036 451.978C206.791 452.786 206.595 454.139 205.942 455.028C205.207 455.844 204.337 456.527 203.37 457.048C202.638 457.491 202.013 458.088 201.538 458.799C201.481 458.899 201.436 459.005 201.404 459.116H195.835C194.593 458.509 193.438 457.739 192.4 456.826Z" fill="#15BDDB"/>
<path d="M159.93 477.769C159.233 477.202 158.725 476.436 158.475 475.573C158.363 475.141 158.403 474.683 158.588 474.276C158.773 473.869 159.092 473.538 159.492 473.338C160.428 472.981 161.425 473.627 162.185 474.28C162.946 474.934 163.815 475.681 164.805 475.546C164.295 475.085 163.913 474.5 163.697 473.847C163.481 473.194 163.438 472.497 163.573 471.823C163.614 471.542 163.733 471.278 163.916 471.062C164.435 470.509 165.371 470.745 165.99 471.183C167.963 472.57 168.515 475.223 168.529 477.668C168.639 476.774 168.651 475.87 168.562 474.974C168.525 474.53 168.597 474.083 168.77 473.673C168.944 473.262 169.215 472.9 169.559 472.617C170.029 472.367 170.556 472.244 171.088 472.26C171.526 472.191 171.974 472.216 172.402 472.332C172.83 472.448 173.229 472.653 173.572 472.934C174.327 473.742 174.131 475.088 173.471 475.977C172.742 476.807 171.874 477.504 170.906 478.038C170.168 478.474 169.539 479.073 169.068 479.789C169.013 479.888 168.968 479.991 168.933 480.098H163.371C162.124 479.48 160.967 478.696 159.93 477.769Z" fill="#15BDDB"/>
<path d="M67.8573 435.433C67.8573 435.433 65.7698 438.16 68.8202 442.274C71.8707 446.389 74.3824 449.87 73.3656 452.436C73.3656 452.436 68.7664 444.786 65.0223 444.685C61.2783 444.584 63.7362 440.032 67.8573 435.433Z" fill="#15BDDB"/>
<path opacity="0.1" d="M67.8573 435.433C67.6767 435.697 67.534 435.984 67.4331 436.288C63.7766 440.577 61.8305 444.584 65.3455 444.685C68.6115 444.773 72.5373 450.624 73.4733 452.092C73.4446 452.207 73.4086 452.319 73.3656 452.429C73.3656 452.429 68.7664 444.779 65.0223 444.678C61.2783 444.577 63.7362 440.032 67.8573 435.433Z" fill="black"/>
<path d="M63.9786 438.907C63.9786 439.87 64.0863 440.645 64.221 440.645C64.3557 440.645 64.4634 439.87 64.4634 438.907C64.4634 437.944 64.3288 438.402 64.1941 438.402C64.0594 438.402 63.9786 437.944 63.9786 438.907Z" fill="#FFD037"/>
<path d="M62.652 440.052C63.4937 440.51 64.2277 440.793 64.2883 440.672C64.3489 440.55 63.7227 440.093 62.8809 439.628C62.0392 439.163 62.3692 439.507 62.3086 439.628C62.2479 439.749 61.8102 439.621 62.652 440.052Z" fill="#FFD037"/>
<path d="M78.874 435.433C78.874 435.433 80.9547 438.16 77.911 442.274C74.8673 446.389 72.3488 449.87 73.3656 452.436C73.3656 452.436 77.9649 444.786 81.7089 444.685C85.453 444.584 82.9884 440.032 78.874 435.433Z" fill="#15BDDB"/>
<path opacity="0.1" d="M78.8739 435.433C79.0544 435.697 79.1972 435.984 79.2981 436.288C82.9479 440.577 84.894 444.584 81.3857 444.685C78.113 444.773 74.1939 450.624 73.2511 452.092C73.2822 452.207 73.3204 452.319 73.3656 452.429C73.3656 452.429 77.9648 444.779 81.7089 444.678C85.4529 444.577 82.9883 440.032 78.8739 435.433Z" fill="black"/>
<path d="M82.7594 438.907C82.7594 439.87 82.6516 440.645 82.5237 440.645C82.3957 440.645 82.2812 439.87 82.2812 438.907C82.2812 437.944 82.4159 438.402 82.5506 438.402C82.6853 438.402 82.7594 437.944 82.7594 438.907Z" fill="#FFD037"/>
<path d="M84.1061 440.052C83.2644 440.51 82.5304 440.793 82.463 440.672C82.3957 440.55 83.0354 440.093 83.8771 439.628C84.7189 439.163 84.3889 439.507 84.4495 439.628C84.5101 439.749 84.9209 439.621 84.1061 440.052Z" fill="#FFD037"/>
<path d="M82.0859 452.079C82.0859 452.079 76.2544 451.897 74.4969 450.651C72.7393 449.405 65.5273 447.904 65.0694 449.91C64.6115 451.917 56.3154 459.89 62.8944 459.944C69.4734 459.998 78.187 458.92 79.9446 457.85C81.7021 456.779 82.0859 452.079 82.0859 452.079Z" fill="#A8A8A8"/>
<path opacity="0.2" d="M62.7934 459.244C69.3791 459.298 78.0928 458.22 79.8436 457.149C81.1903 456.335 81.7089 453.419 81.8637 452.072H82.086C82.086 452.072 81.7156 456.786 79.9648 457.843C78.214 458.9 69.4936 459.991 62.9146 459.937C61.0157 459.937 60.3557 459.264 60.3894 458.247C60.6588 458.853 61.3793 459.23 62.7934 459.244Z" fill="black"/>
<path d="M116.133 224.959C116.025 227.787 118.449 231.544 118.449 231.544C119.19 233.329 128.274 241.598 128.274 241.598L135.008 246.096C133.647 247.1 132.221 248.011 130.738 248.823C127.459 250.5 125.668 256.049 125.668 256.049C125.668 256.049 120.698 267.988 130.738 269.665L130.927 269.698L131.829 270.675C134.051 273.072 136.765 275.934 137.708 276.574C139.398 277.725 144.576 286.419 144.576 286.419C144.576 286.419 150.065 295.429 157.371 295.846C164.677 296.264 164.657 287.887 164.105 287.361C163.885 287.011 163.732 286.623 163.653 286.217C165.398 289.025 167.775 292.715 168.542 293.227C169.808 294.062 173.929 300.634 173.929 300.634C173.929 300.634 179.108 312.465 179.949 313.725C180.791 314.984 182.273 321.267 182.273 321.267C182.273 321.267 185.236 329.953 186.609 331.111C187.983 332.27 188.717 336.451 188.717 336.451C188.717 336.451 193.047 342.734 193.788 343.778C194.654 345.302 195.43 346.876 196.111 348.492C196.111 348.492 198.434 352.263 198.434 353.731C198.434 355.199 203.296 357.704 203.296 357.704C203.296 357.704 206.784 361.791 208.791 362.525C210.797 363.259 212.696 368.074 213.013 367.757C213.2 367.668 213.405 367.627 213.612 367.636L214.434 368.458C217.639 371.649 224.043 378.013 225.686 379.488C227.908 381.508 232.979 381.791 237.201 380.956C239.369 380.525 242.009 378.471 244.063 376.572C244.527 376.137 244.899 375.613 245.156 375.031C245.413 374.449 245.549 373.821 245.556 373.185C245.564 372.549 245.443 371.918 245.2 371.33C244.957 370.742 244.598 370.209 244.144 369.764C242.123 367.818 239.787 365.683 238.756 365.353C236.857 364.72 231.47 360.956 228.938 357.811C227.592 356.175 225.228 354.619 223.242 353.508L222.999 353.367C222.696 352.215 222.491 351.039 222.386 349.852C222.386 349.852 225.875 342 223.969 341.583C222.063 341.165 214.885 328.701 214.885 328.701C214.784 319.273 206.131 311.314 206.131 311.314C206.131 311.314 201.801 301.051 200.535 298.856C200.159 298.299 199.957 297.643 199.957 296.971C199.957 296.299 200.159 295.642 200.535 295.085C200.535 295.085 198.104 293.2 197.687 292.257C197.269 291.314 195.256 284.176 195.256 284.176C195.256 284.176 192.825 279.88 192.717 277.894C192.609 275.907 187.875 270.365 187.875 270.365C187.875 270.365 185.956 261.032 183.835 259.355C183.424 259.032 183.485 257.8 183.835 256.029L183.936 255.921L184.259 255.604L184.353 255.51C185.324 254.553 186.237 253.539 187.087 252.473L187.128 252.419C187.262 252.251 187.39 252.089 187.512 251.921C190.576 247.733 192.474 237.78 192.474 237.78C192.474 237.78 193.081 237.497 193.868 237.066C194.976 236.513 196 235.808 196.912 234.972C196.956 234.924 196.992 234.869 197.02 234.81C197.023 234.792 197.023 234.774 197.02 234.756C197.041 234.715 197.059 234.672 197.074 234.628C197.076 234.604 197.076 234.579 197.074 234.554C197.078 234.505 197.078 234.456 197.074 234.406C197.074 234.406 197.074 234.359 197.074 234.332V234.09C197.074 234.002 197.074 233.915 197.04 233.82C197.039 233.809 197.039 233.798 197.04 233.787C197.04 233.706 197.006 233.625 196.986 233.538V233.457C196.986 233.383 196.946 233.309 196.919 233.228C196.921 233.199 196.921 233.169 196.919 233.14L196.838 232.891C196.836 232.871 196.836 232.851 196.838 232.831C196.71 232.494 196.555 232.157 196.38 231.793L196.198 231.45C195.868 230.824 195.525 230.211 195.161 229.679L195.107 229.598C195.848 227.511 197.282 223.834 198.616 222.514C200.515 220.629 197.559 210.575 197.559 210.575C197.559 210.575 196.926 203.457 196.077 201.363C195.229 199.269 196.077 198.966 195.404 197.175C194.589 195.154 193.996 195.289 195.047 190.683C195.444 188.946 196.057 187.033 196.609 185.249L197.282 185.868C201.188 189.552 207.323 194.346 207.323 194.346C207.323 194.346 219.363 205.235 220.42 205.552C221.477 205.868 224.649 216.548 224.649 216.548C224.649 216.548 223.908 234.245 233.625 234.979C237.753 235.288 239.504 232.097 240.137 228.332C240.605 225.411 240.421 222.422 239.598 219.58C238.775 216.738 237.333 214.114 235.376 211.895L229.558 205.282L224.38 196.07C221.083 190.87 218.307 185.357 216.09 179.613C213.738 173.984 210.285 168.881 205.936 164.603L205.518 164.192L206.057 163.694C206.057 163.694 205.208 156.785 204.575 155.95C203.942 155.115 201.619 150.293 201.619 149.216C201.619 148.139 200.138 147.963 199.296 146.704C199.296 146.704 197.814 143.775 196.441 143.337C196.19 143.24 195.961 143.093 195.767 142.906C193.359 140.777 190.336 139.468 187.135 139.169L186.293 139.088C184.421 139.003 182.545 139.03 180.677 139.169H180.63C179.195 138.738 178.111 137.62 177 136.624C175.211 135.023 173.226 133.654 171.094 132.55C168.906 131.412 166.428 130.529 163.983 130.947C162.071 131.257 160.361 132.294 158.495 132.839C155.842 133.587 152.583 133.432 150.913 135.607C150.112 136.644 149.883 138.024 149.135 139.095C148.071 140.617 146.118 141.324 145.021 142.825C144.286 143.918 143.951 145.231 144.071 146.543C144.035 147.604 144.162 148.665 144.448 149.687C144.728 150.566 144.933 151.467 145.061 152.381C145.047 152.531 145.022 152.679 144.987 152.825C144.839 153.499 144.496 154.064 144.361 154.718C144.293 155.073 144.281 155.436 144.327 155.795C144.125 157.404 145.162 158.933 145.863 160.428C146.404 161.596 146.761 162.841 146.92 164.118C145.167 164.636 143.458 165.291 141.809 166.078C139.607 167.142 137.391 168.583 136.125 170.428C134.064 173.325 131.485 175.816 128.516 177.774C127.603 180.024 126.827 182.326 126.193 184.67C125.56 187.363 124.927 191.788 123.028 194.097C121.129 196.407 120.254 203.262 120.254 203.262C120.254 203.262 117.715 207.343 117.715 208.185C117.715 209.026 117.398 212.898 117.715 214.043C117.901 214.403 118.15 214.726 118.449 214.999L118.26 215.673C117.385 218.75 116.2 223.188 116.133 224.959ZM175.687 177.788C175.633 178.023 175.572 178.246 175.498 178.461C175.498 178.246 175.532 178.037 175.546 177.821L175.687 177.788ZM151.62 267.294L151.283 266.985L151.122 266.837C151.122 266.756 151.162 266.675 151.182 266.581L151.62 267.294ZM134.112 224.433L134.247 224.184L134.745 223.282L138.785 219.982L139.304 220.454C139.304 220.454 138.88 224.851 137.829 224.642C137.587 224.595 137.479 225.605 137.452 227.188C135.546 225.558 134.092 224.433 134.092 224.433H134.112Z" fill="url(#paint0_linear)"/>
<path d="M170.576 142.866C170.576 142.866 183.148 141.735 186.138 142.044L186.953 142.118C190.072 142.436 193.009 143.74 195.336 145.842C195.53 146.027 195.759 146.171 196.01 146.267C197.356 146.677 198.791 149.566 198.791 149.566C198.791 149.566 195.599 174.811 195.599 175.121C195.599 175.431 189 186.865 189 186.865L182.609 189.343L171.586 190.899L171.276 186.145C171.276 186.145 176.582 183.235 175.99 177.222C175.397 171.209 170.576 142.866 170.576 142.866Z" fill="#464353"/>
<path d="M176.758 172.852C176.758 172.852 174.064 185.013 176.758 188.926C179.451 192.838 150.172 182.542 150.172 182.542L144.785 172.852C144.785 172.852 146.805 171.418 149.081 169.566C152.287 166.987 156.125 163.606 156.125 162.158C156.159 159.66 176.758 172.852 176.758 172.852Z" fill="#ECB4B6"/>
<path opacity="0.1" d="M176.758 172.852C176.758 172.852 174.064 185.013 176.758 188.926C179.451 192.838 150.172 182.542 150.172 182.542L144.785 172.852C144.785 172.852 146.805 171.418 149.081 169.566C152.287 166.987 156.125 163.606 156.125 162.158C156.159 159.66 176.758 172.852 176.758 172.852Z" fill="black"/>
<path opacity="0.1" d="M170.576 180.912C180.48 180.912 188.508 172.884 188.508 162.98C188.508 153.076 180.48 145.048 170.576 145.048C160.672 145.048 152.644 153.076 152.644 162.98C152.644 172.884 160.672 180.912 170.576 180.912Z" fill="black"/>
<path d="M170.576 180.084C180.48 180.084 188.508 172.055 188.508 162.152C188.508 152.248 180.48 144.219 170.576 144.219C160.672 144.219 152.644 152.248 152.644 162.152C152.644 172.055 160.672 180.084 170.576 180.084Z" fill="#ECB4B6"/>
<path d="M193.761 184.407C193.828 185.081 195.107 186.474 196.845 188.124C200.656 191.747 206.642 196.468 206.642 196.468C206.642 196.468 218.393 207.181 219.437 207.491C220.481 207.801 223.558 218.312 223.558 218.312C223.558 218.312 222.837 235.726 232.312 236.447C236.352 236.75 238.049 233.618 238.669 229.908C239.125 227.039 238.946 224.104 238.144 221.312C237.342 218.52 235.938 215.937 234.029 213.747L228.4 207.195L223.349 198.124C220.112 193.017 217.385 187.604 215.208 181.963C212.929 176.416 209.566 171.379 205.316 167.148C204.259 166.098 203.579 165.539 203.579 165.539L198.865 166.98C198.865 166.98 193.559 182.333 193.761 184.407Z" fill="#ECB4B6"/>
<path d="M211.794 365.973L213.599 367.784C216.723 370.929 222.972 377.212 224.575 378.639C226.736 380.599 231.686 380.908 235.807 380.08C237.921 379.663 240.521 377.636 242.5 375.771C242.958 375.343 243.324 374.827 243.577 374.254C243.83 373.681 243.963 373.063 243.97 372.436C243.977 371.81 243.857 371.189 243.617 370.61C243.377 370.032 243.023 369.508 242.574 369.07C240.622 367.158 238.332 365.03 237.349 364.727C235.497 364.107 230.238 360.404 227.767 357.32C226.481 355.71 224.151 354.182 222.218 353.084C220.44 352.081 219.006 351.448 219.006 351.448L211.794 365.973Z" fill="#C17174"/>
<path opacity="0.1" d="M214.339 365.973C214.339 365.973 214.939 366.586 215.868 367.515C218.528 370.208 223.841 375.515 225.208 376.747C227.046 378.41 231.268 378.673 234.756 377.973C236.332 377.656 238.211 376.303 239.8 374.902C240.283 374.479 240.673 373.961 240.946 373.379C241.218 372.798 241.367 372.167 241.383 371.525C241.399 370.883 241.281 370.245 241.038 369.651C240.794 369.057 240.43 368.52 239.968 368.074C238.447 366.612 236.817 365.165 236.07 364.916C234.494 364.39 230.009 361.232 227.922 358.606C226.57 357.143 224.975 355.924 223.208 355.003C221.699 354.148 220.481 353.609 220.481 353.609L214.339 365.973Z" fill="black"/>
<path d="M129.896 268.069C129.896 268.069 131.311 269.665 133.028 271.537C135.189 273.9 137.842 276.715 138.758 277.341C140.408 278.479 145.458 287.031 145.458 287.031C145.458 287.031 150.846 295.893 157.93 296.304C165.014 296.715 165.041 288.473 164.522 287.961C164.004 287.449 163.29 282.803 162.259 279.402C161.478 276.83 155.088 270.715 152.031 267.894C151.048 266.985 150.408 266.419 150.408 266.419L129.896 268.069Z" fill="#C17174"/>
<path opacity="0.1" d="M131.412 269.254C131.412 269.254 132.691 270.709 134.26 272.419C136.233 274.574 138.651 277.133 139.486 277.712C140.994 278.749 145.593 286.547 145.593 286.547C145.593 286.547 150.482 294.627 156.967 294.998C163.451 295.368 163.445 287.86 162.98 287.388C162.515 286.917 161.849 282.675 160.913 279.591C160.199 277.247 154.374 271.671 151.586 269.099C150.691 268.271 150.105 267.752 150.105 267.752L131.412 269.254Z" fill="black"/>
<path opacity="0.1" d="M129.896 268.069C129.896 268.069 131.311 269.665 133.028 271.537C142.078 272.884 146.287 271.368 146.287 271.368C146.287 271.368 150.509 269.51 151.438 269.409C151.674 269.409 151.842 268.796 152.031 267.894C151.048 266.985 150.408 266.419 150.408 266.419L129.896 268.069Z" fill="black"/>
<path d="M140.799 243.753C140.799 243.753 135.129 248.379 131.917 250.036C128.705 251.692 126.987 257.133 126.987 257.133C126.987 257.133 122.146 268.884 131.93 270.527C141.714 272.17 146.26 270.527 146.26 270.527C146.26 270.527 150.482 268.675 151.411 268.574C152.341 268.473 152.334 259.604 155.734 256.924C159.135 254.244 166.966 248.17 166.966 248.17L140.799 243.753Z" fill="#5E5A6B"/>
<path opacity="0.1" d="M140.799 243.753C140.799 243.753 135.129 248.379 131.917 250.036C128.705 251.692 126.987 257.133 126.987 257.133C126.987 257.133 122.146 268.884 131.93 270.527C141.714 272.17 146.26 270.527 146.26 270.527C146.26 270.527 150.482 268.675 151.411 268.574C152.341 268.473 152.334 259.604 155.734 256.924C159.135 254.244 166.966 248.17 166.966 248.17L140.799 243.753Z" fill="black"/>
<path d="M193.754 229.632C193.754 229.632 197.794 235.133 196.542 236.453C195.289 237.773 192.219 239.214 192.219 239.214C192.219 239.214 190.36 249.005 187.37 253.126C184.38 257.248 178.515 261.786 178.515 261.786L182.629 238.803L193.754 229.632Z" fill="#5E5A6B"/>
<path opacity="0.1" d="M178.522 261.786C180.355 260.338 182.113 258.796 183.788 257.167C185.09 255.92 186.288 254.569 187.37 253.126C190.36 249.005 192.218 239.214 192.218 239.214C192.218 239.214 195.309 237.773 196.542 236.453C197.296 235.652 196.104 233.315 195.053 231.598C194.38 230.48 193.761 229.632 193.761 229.632L187.922 234.44L182.629 238.803L181.074 247.706L178.522 261.786Z" fill="black"/>
<path opacity="0.1" d="M211.794 365.973L213.599 367.784C214.737 367.784 216.434 367.926 216.434 367.926C216.434 367.926 224.777 357.926 223.437 356.175C222.83 355.23 222.416 354.175 222.218 353.071C220.44 352.067 219.006 351.434 219.006 351.434L211.794 365.973Z" fill="black"/>
<path d="M148.112 260.446C148.112 262.197 162.125 283.631 162.125 283.631C162.125 283.631 167.586 292.903 168.825 293.732C170.064 294.56 174.077 301.045 174.077 301.045C174.077 301.045 179.128 312.688 179.956 313.927C180.784 315.166 182.219 321.334 182.219 321.334C182.219 321.334 185.108 329.886 186.448 331.017C187.788 332.148 188.508 336.276 188.508 336.276C188.508 336.276 192.73 342.458 193.451 343.488C194.297 344.987 195.054 346.534 195.72 348.121C195.72 348.121 197.989 351.832 197.989 353.279C197.989 354.727 202.703 357.192 202.703 357.192C202.703 357.192 206.07 361.232 208.057 361.905C210.043 362.579 211.875 367.367 212.178 367.057C212.481 366.747 215.996 367.057 215.996 367.057C215.996 367.057 224.339 357.064 222.999 355.313C221.659 353.562 221.349 349.434 221.349 349.434C221.349 349.434 224.716 341.711 222.898 341.3C221.08 340.889 214.07 328.66 214.07 328.66C213.969 319.388 205.518 311.556 205.518 311.556C205.518 311.556 201.289 301.455 200.057 299.294C199.688 298.745 199.491 298.099 199.491 297.439C199.491 296.778 199.688 296.132 200.057 295.583C200.057 295.583 197.686 293.732 197.276 292.802C196.865 291.873 194.905 284.87 194.905 284.87C194.905 284.87 192.535 280.641 192.427 278.681C192.32 276.722 187.714 271.274 187.714 271.274C187.714 271.274 185.842 262.096 183.781 260.446C183.377 260.123 183.444 258.918 183.781 257.167C184.73 252.554 187.754 244.217 189.841 238.756C191.033 235.632 191.916 233.443 191.916 233.443L187.929 234.44L153.99 242.925C153.99 242.925 152.152 247.861 150.536 252.514C149.25 256.177 148.112 259.672 148.112 260.446Z" fill="#5E5A6B"/>
<path opacity="0.1" d="M213.962 344.842C213.962 344.842 224.575 340.721 219.349 345.973C214.124 351.226 204.104 350.923 204.104 350.923L213.962 344.842Z" fill="black"/>
<path opacity="0.1" d="M195.821 323.798C195.821 323.798 189.848 327.098 190.98 330.29C192.111 333.482 195.821 323.798 195.821 323.798Z" fill="black"/>
<path opacity="0.1" d="M189.828 298.264C189.251 299.298 188.392 300.147 187.352 300.712C186.311 301.277 185.131 301.535 183.949 301.455C179.646 301.354 189.828 298.264 189.828 298.264Z" fill="black"/>
<path opacity="0.1" d="M133.789 252.419C133.789 252.419 136.058 259.429 133.789 259.941C131.519 260.453 133.789 252.419 133.789 252.419Z" fill="black"/>
<path opacity="0.1" d="M193.761 184.407C193.828 185.081 195.107 186.474 196.845 188.124C197.828 184.959 198.744 182.064 198.191 181.108C197.37 179.667 200.589 176.576 200.01 174.515C199.565 172.939 203.444 168.946 205.289 167.162C204.232 166.111 203.552 165.552 203.552 165.552L198.838 166.993C198.838 166.993 193.559 182.333 193.761 184.407Z" fill="black"/>
<path opacity="0.1" d="M150.529 252.514C154.441 252.298 163.566 249.47 163.566 249.47C163.566 249.47 174.145 249.12 181.074 247.706C184.441 247.032 186.892 246.069 186.892 244.797C186.892 243.093 188.286 240.81 189.868 238.736C190.95 237.366 192.106 236.055 193.33 234.81C193.973 234.151 194.463 233.358 194.764 232.487C194.858 232.211 194.973 231.901 195.087 231.578C194.414 230.46 193.794 229.612 193.794 229.612L187.956 234.42L154.017 242.904C154.017 242.904 152.118 247.861 150.529 252.514Z" fill="black"/>
<path d="M139.25 245.813C139.25 245.813 146.873 250.345 149.142 251.167C151.411 251.988 163.566 248.231 163.566 248.231C163.566 248.231 186.858 247.463 186.858 243.517C186.858 240.494 191.276 235.632 193.296 233.571C193.941 232.91 194.431 232.115 194.73 231.241C195.437 229.221 196.865 225.47 198.191 224.144C200.05 222.292 197.161 212.4 197.161 212.4C197.161 212.4 196.542 205.39 195.72 203.329C194.899 201.269 195.72 200.966 195.047 199.208C194.252 197.235 193.7 197.35 194.703 192.818C195.707 188.286 198.205 182.515 197.397 181.067C196.589 179.619 199.794 176.535 199.215 174.475C198.636 172.414 205.43 166.232 205.43 166.232C205.43 166.232 204.582 159.492 203.969 158.63C203.356 157.768 201.087 153.068 201.087 152.037C201.087 151.007 199.639 150.798 198.818 149.566C197.996 148.334 188.481 181.512 188.481 181.512L174.616 184.636L173.848 184.804C173.848 184.804 165.963 185.175 160.845 182.333C160.845 182.333 152.004 180.892 149.115 166.259C146.906 166.814 144.758 167.59 142.704 168.576C140.556 169.62 138.401 171.04 137.162 172.852C135.163 175.701 132.651 178.154 129.755 180.084C128.865 182.297 128.107 184.562 127.486 186.865C126.873 189.559 126.253 193.875 124.395 196.144C122.536 198.414 121.701 205.208 121.701 205.208L140.28 222.117C140.28 222.117 139.869 226.447 138.839 226.238C137.809 226.029 139.25 245.813 139.25 245.813Z" fill="#464353"/>
<path opacity="0.1" d="M142.731 169.397L152.644 190.064C152.644 190.064 156.765 192.757 158.212 191.296C159.66 189.835 165.115 189.855 165.115 189.855L165.835 191.296L176.279 188.831L174.643 185.464L173.875 185.639C173.875 185.639 165.99 186.01 160.872 183.168C160.872 183.168 152.031 181.72 149.142 167.088C146.933 167.64 144.785 168.414 142.731 169.397Z" fill="black"/>
<path d="M142.731 168.576L152.644 189.235C152.644 189.235 156.765 191.929 158.212 190.474C159.66 189.02 165.115 189.033 165.115 189.033L165.835 190.474L176.279 188.003L174.643 184.636L173.875 184.804C173.875 184.804 165.99 185.175 160.872 182.333C160.872 182.333 152.031 180.892 149.142 166.259C146.933 166.814 144.785 167.59 142.731 168.576Z" fill="#464353"/>
<path opacity="0.1" d="M147.081 228.703C147.081 228.703 168.953 235.585 170.576 236.453C172.199 237.322 147.182 231.073 147.081 228.703Z" fill="black"/>
<path opacity="0.1" d="M160.872 239.214C160.872 239.214 155.122 242.413 153.061 241.275C151 240.137 160.872 239.214 160.872 239.214Z" fill="black"/>
<path opacity="0.1" d="M178.926 200.993C178.926 200.993 184.461 230.561 176.279 239.214L178.926 200.993Z" fill="black"/>
<path opacity="0.1" d="M188.023 156.475C189.047 155.372 189.634 153.934 189.675 152.429C189.716 150.925 189.208 149.457 188.246 148.3C187.532 147.492 186.596 146.879 186.01 145.97C185.71 145.337 185.344 144.736 184.919 144.179C183.855 143.088 182.064 143.378 180.603 142.933C179.141 142.489 178.151 141.411 177.067 140.435C175.327 138.85 173.392 137.492 171.31 136.395C169.168 135.277 166.751 134.428 164.367 134.819C162.502 135.129 160.839 136.166 159.014 136.684C156.428 137.418 153.243 137.27 151.606 139.411C150.832 140.428 150.61 141.782 149.876 142.839C148.839 144.334 146.933 145.034 145.836 146.509C144.63 148.172 144.758 150.455 145.277 152.441C145.62 153.728 146.105 155.048 145.802 156.34C145.654 156.973 145.324 157.559 145.196 158.199C144.859 159.869 145.937 161.451 146.657 163C147.433 164.676 147.815 166.507 147.775 168.354C147.724 168.768 147.782 169.188 147.943 169.572C148.147 169.881 148.428 170.132 148.758 170.3L151.856 172.253C152.001 172.356 152.166 172.429 152.34 172.468C152.947 172.562 153.317 171.869 153.687 171.404C154.724 170.165 156.697 170.259 158.159 170.96C159.62 171.66 160.818 172.811 162.286 173.478C165.727 175.047 169.694 173.653 173.418 172.933C174.693 172.749 175.951 172.465 177.182 172.084C178.342 171.614 179.448 171.02 180.481 170.313C181.53 169.723 182.481 168.976 183.303 168.098C183.748 167.614 184.067 167.028 184.23 166.391C184.394 165.754 184.397 165.086 184.239 164.448C183.936 163.364 182.966 162.387 183.161 161.182C183.552 159.095 186.67 157.849 188.023 156.475Z" fill="black"/>
<path d="M188.023 155.654C189.047 154.549 189.635 153.11 189.676 151.605C189.717 150.099 189.208 148.63 188.246 147.472C187.532 146.671 186.596 146.051 186.01 145.149C185.708 144.514 185.343 143.911 184.919 143.351C183.855 142.267 182.064 142.556 180.603 142.112C179.141 141.667 178.151 140.583 177.067 139.607C175.329 138.019 173.394 136.661 171.31 135.566C169.168 134.449 166.751 133.6 164.367 133.991C162.502 134.3 160.839 135.337 159.014 135.856C156.428 136.59 153.243 136.435 151.606 138.549C150.832 139.573 150.61 140.927 149.876 141.984C148.839 143.479 146.933 144.179 145.836 145.654C144.63 147.317 144.758 149.6 145.277 151.586C145.62 152.866 146.105 154.192 145.802 155.485C145.654 156.118 145.324 156.704 145.196 157.344C144.859 159.014 145.937 160.596 146.657 162.138C147.456 163.836 147.851 165.696 147.809 167.573C147.758 167.989 147.816 168.411 147.977 168.798C148.185 169.104 148.465 169.354 148.792 169.525L151.889 171.471C152.035 171.577 152.199 171.653 152.374 171.694C152.98 171.781 153.351 171.094 153.721 170.623C154.758 169.384 156.731 169.485 158.192 170.179C159.653 170.872 160.852 172.03 162.32 172.697C165.761 174.266 169.727 172.872 173.451 172.158C174.726 171.969 175.984 171.683 177.215 171.303C178.375 170.835 179.481 170.243 180.515 169.539C181.564 168.947 182.515 168.197 183.337 167.317C183.782 166.834 184.1 166.249 184.264 165.613C184.427 164.977 184.43 164.311 184.273 163.674C183.97 162.583 183 161.606 183.195 160.408C183.552 158.266 186.67 157.021 188.023 155.654Z" fill="#464353"/>
<path d="M117.715 226.541C117.607 229.322 119.977 233.033 119.977 233.033C120.698 234.783 129.56 242.925 129.56 242.925L136.57 247.638C136.57 247.638 145.95 253.409 148.165 254.44C149.277 254.958 150.468 257.133 151.391 259.261C152.314 261.389 152.953 263.301 152.953 263.301C154.984 263.003 156.857 262.036 158.276 260.552C159.694 259.069 160.577 257.155 160.785 255.113C161.047 252.46 161.222 250.076 160.993 250.029C160.475 249.928 154.704 245.598 154.704 245.598C154.704 245.598 148.011 241.268 145.842 236.945C143.674 232.622 135.23 226.023 135.23 226.023L135.364 225.773L135.849 224.885L136.879 221.484L120.718 214.272C120.718 214.272 120.321 215.585 119.809 217.383C118.934 220.413 117.775 224.81 117.715 226.541Z" fill="#ECB4B6"/>
<path opacity="0.1" d="M119.796 217.403C122.849 220.41 126.115 223.194 129.567 225.733C130.57 226.319 134.085 225.955 135.371 225.794L135.856 224.905L136.886 221.504L120.725 214.292C120.725 214.292 120.301 215.592 119.796 217.403Z" fill="black"/>
<path d="M135.849 204.898C135.849 204.898 144.092 209.848 143.681 212.009C143.27 214.171 139.775 221.646 139.775 221.646L135.849 224.891C135.849 224.891 130.799 225.612 129.56 224.891C128.321 224.171 119.567 216.959 119.257 215.827C118.947 214.696 119.257 210.878 119.257 210.057C119.257 209.235 121.728 205.208 121.728 205.208L125.338 198.824L135.849 204.898Z" fill="#464353"/>
<path opacity="0.1" d="M163.566 249.45L165.99 255.961L161.903 259.827L161.714 260.992L152.644 266.21L149.761 258.931L163.566 249.45Z" fill="black"/>
<path d="M163.566 249.039L165.99 255.544L161.903 259.416L161.714 260.581L152.644 265.8L149.761 258.52L163.566 249.039Z" fill="#5E5A6B"/>
<g opacity="0.1">
<path opacity="0.1" d="M183.35 159.896C183.207 159.525 183.161 159.124 183.215 158.731C183.552 156.623 186.67 155.364 188.023 154.017C188.906 153.098 189.466 151.916 189.619 150.65C189.749 151.557 189.673 152.481 189.397 153.354C189.121 154.228 188.651 155.027 188.023 155.694C186.778 156.913 184.044 158.071 183.35 159.896Z" fill="black"/>
<path opacity="0.1" d="M145.27 157.256C145.627 158.398 146.104 159.5 146.691 160.542C147.469 162.218 147.853 164.049 147.815 165.896C147.762 166.311 147.818 166.734 147.977 167.121C148.184 167.427 148.464 167.677 148.792 167.849L151.889 169.795C152.035 169.904 152.203 169.98 152.381 170.017C152.98 170.104 153.351 169.418 153.728 168.953C154.765 167.714 156.744 167.808 158.199 168.502C159.653 169.195 160.859 170.354 162.327 171.027C165.775 172.589 169.734 171.202 173.458 170.482C174.733 170.296 175.992 170.01 177.222 169.626C178.383 169.159 179.489 168.568 180.522 167.862C181.573 167.27 182.527 166.521 183.35 165.64C183.812 165.102 184.139 164.463 184.306 163.775C184.436 164.394 184.418 165.036 184.251 165.647C184.085 166.258 183.776 166.821 183.35 167.29C182.525 168.169 181.571 168.918 180.522 169.512C179.489 170.218 178.383 170.809 177.222 171.276C175.991 171.656 174.733 171.942 173.458 172.131C169.741 172.845 165.775 174.239 162.327 172.67C160.859 171.997 159.633 170.852 158.199 170.152C156.765 169.451 154.765 169.357 153.728 170.596C153.337 171.067 152.967 171.754 152.381 171.667C152.204 171.627 152.037 171.551 151.889 171.444L148.792 169.498C148.467 169.323 148.188 169.074 147.977 168.771C147.818 168.383 147.763 167.961 147.815 167.546C147.853 165.699 147.469 163.868 146.691 162.192C145.97 160.65 144.893 159.068 145.23 157.398C145.24 157.35 145.253 157.302 145.27 157.256Z" fill="black"/>
<path opacity="0.1" d="M145.317 149.99C145.647 151.243 146.118 152.542 145.856 153.808C145.735 153.081 145.506 152.354 145.317 151.64C144.995 150.507 144.881 149.326 144.98 148.152C145.041 148.773 145.153 149.388 145.317 149.99Z" fill="black"/>
</g>
<path opacity="0.1" d="M14.5654 104.207C22.6096 104.207 29.1308 97.6856 29.1308 89.6413C29.1308 81.5971 22.6096 75.076 14.5654 75.076C6.52114 75.076 0 81.5971 0 89.6413C0 97.6856 6.52114 104.207 14.5654 104.207Z" fill="#15BDDB"/>
<path opacity="0.1" d="M409.918 42.8341C417.962 42.8341 424.483 36.313 424.483 28.2688C424.483 20.2245 417.962 13.7034 409.918 13.7034C401.874 13.7034 395.353 20.2245 395.353 28.2688C395.353 36.313 401.874 42.8341 409.918 42.8341Z" fill="#15BDDB"/>
<path opacity="0.1" d="M640.991 100.375C649.035 100.375 655.556 93.854 655.556 85.8098C655.556 77.7655 649.035 71.2444 640.991 71.2444C632.947 71.2444 626.426 77.7655 626.426 85.8098C626.426 93.854 632.947 100.375 640.991 100.375Z" fill="#15BDDB"/>
<path opacity="0.1" d="M43.6894 194.407C57.1709 194.407 68.0997 183.478 68.0997 169.997C68.0997 156.515 57.1709 145.586 43.6894 145.586C30.208 145.586 19.2791 156.515 19.2791 169.997C19.2791 183.478 30.208 194.407 43.6894 194.407Z" fill="#15BDDB"/>
<path opacity="0.1" d="M341.839 556.023C355.32 556.023 366.249 545.094 366.249 531.613C366.249 518.131 355.32 507.202 341.839 507.202C328.357 507.202 317.428 518.131 317.428 531.613C317.428 545.094 328.357 556.023 341.839 556.023Z" fill="#15BDDB"/>
<path opacity="0.1" d="M667.024 541.949C680.506 541.949 691.435 531.02 691.435 517.539C691.435 504.057 680.506 493.129 667.024 493.129C653.543 493.129 642.614 504.057 642.614 517.539C642.614 531.02 653.543 541.949 667.024 541.949Z" fill="#15BDDB"/>
<defs>
<linearGradient id="paint0_linear" x1="180.838" y1="381.42" x2="180.838" y2="130.832" gradientUnits="userSpaceOnUse">
<stop stop-color="#808080" stop-opacity="0.25"/>
<stop offset="0.54" stop-color="#808080" stop-opacity="0.12"/>
<stop offset="1" stop-color="#808080" stop-opacity="0.1"/>
</linearGradient>
</defs>
</svg>
