<svg width="74" height="26" viewBox="0 0 74 26" fill="none" xmlns="http://www.w3.org/2000/svg">
<path d="M21.336 24.032L19.032 25.536L17.464 23.2C15.672 24.0747 13.8373 24.512 11.96 24.512C8.632 24.512 5.83733 23.36 3.576 21.056C1.31467 18.7733 0.184 15.936 0.184 12.544C0.184 9.152 1.31467 6.31467 3.576 4.032C5.83733 1.728 8.632 0.575998 11.96 0.575998C15.288 0.575998 18.0827 1.73867 20.344 4.064C22.6053 6.34667 23.736 9.17333 23.736 12.544C23.736 14.336 23.384 16.0107 22.68 17.568C21.9973 19.1253 21.016 20.48 19.736 21.632L21.336 24.032ZM11.96 21.696C13.3253 21.696 14.616 21.3973 15.832 20.8L13.144 16.768L15.448 15.2L18.104 19.2C19.8533 17.5147 20.728 15.296 20.728 12.544C20.728 9.87733 19.8853 7.69067 18.2 5.984C16.536 4.256 14.456 3.392 11.96 3.392C9.464 3.392 7.37333 4.256 5.688 5.984C4.024 7.712 3.192 9.89867 3.192 12.544C3.192 15.1893 4.024 17.376 5.688 19.104C7.37333 20.832 9.464 21.696 11.96 21.696ZM40.4583 24H37.6423V21.824H37.5143C37.0663 22.592 36.3729 23.232 35.4343 23.744C34.5169 24.256 33.5569 24.512 32.5543 24.512C30.6343 24.512 29.1516 23.968 28.1063 22.88C27.0823 21.7707 26.5703 20.2027 26.5703 18.176V8.32H29.5143V17.984C29.5783 20.544 30.8689 21.824 33.3863 21.824C34.5596 21.824 35.5409 21.3547 36.3303 20.416C37.1196 19.456 37.5143 18.3147 37.5143 16.992V8.32H40.4583V24ZM46.0298 19.2C46.0298 19.968 46.3498 20.608 46.9898 21.12C47.6511 21.632 48.4191 21.888 49.2938 21.888C50.5311 21.888 51.6298 21.4293 52.5898 20.512C53.5711 19.5947 54.0618 18.5173 54.0618 17.28C53.1444 16.5547 51.8644 16.192 50.2218 16.192C49.0271 16.192 48.0244 16.48 47.2138 17.056C46.4244 17.632 46.0298 18.3467 46.0298 19.2ZM49.8378 7.808C52.0138 7.808 53.7311 8.39467 54.9898 9.568C56.2484 10.72 56.8778 12.3093 56.8778 14.336V24H54.0618V21.824H53.9338C52.7178 23.616 51.0964 24.512 49.0698 24.512C47.3418 24.512 45.8911 24 44.7178 22.976C43.5658 21.952 42.9898 20.672 42.9898 19.136C42.9898 17.5147 43.5978 16.224 44.8138 15.264C46.0511 14.304 47.6938 13.824 49.7418 13.824C51.4911 13.824 52.9311 14.144 54.0618 14.784V14.112C54.0618 13.088 53.6564 12.224 52.8458 11.52C52.0351 10.7947 51.0858 10.432 49.9978 10.432C48.3551 10.432 47.0538 11.1253 46.0938 12.512L43.5018 10.88C44.9311 8.832 47.0431 7.808 49.8378 7.808ZM73.9903 24H70.4383L65.5423 16.608L63.1423 18.976V24H60.1983V1.088H63.1423V15.2L69.9263 8.32H73.7023V8.448L67.5903 14.528L73.9903 23.872V24Z" fill="#3A3A3A"/>
</svg>
