<svg width="60" height="50" viewBox="0 0 60 50" fill="none" xmlns="http://www.w3.org/2000/svg">
<path fill-rule="evenodd" clip-rule="evenodd" d="M58.9916 28.4292C58.7875 28.262 58.5452 28.1481 58.2862 28.0975C56.7633 29.6154 54.905 31.2142 53.255 32.2892C52.4937 32.795 51.5358 33.0475 50.9021 33.0475C49.4425 33.0475 48.8083 31.6558 48.6179 29.4433C48.3637 26.4725 48.1929 22.9133 48.1929 17.4129C48.1929 11.7713 46.9125 7.93668 43.5021 7.63585C43.3579 7.62335 43.2121 7.61418 43.0604 7.61418C40.9666 7.61418 39.9512 8.68918 38.6187 11.4075C37.4771 13.7463 35.7004 17.16 32.4021 23.6083C29.5471 29.1725 26.375 34.1042 23.6458 37.5175C22.8858 38.4633 22.2854 39.1133 21.7208 39.4842C21.3437 39.7325 20.9816 39.8567 20.6008 39.8567C19.5237 39.8567 18.7383 38.9483 18.4758 36.8317C18.4133 36.3288 18.38 35.7579 18.38 35.115C18.38 30.7525 20.03 23.6725 22.88 13.2408C24.9737 5.65501 24.0858 0.47168 19.5175 0.47168H19.4662L19.4633 0.472513C18.4287 0.485013 17.5716 0.85918 16.745 1.51001C15.9316 2.15043 15.1175 3.53376 14.3575 5.39418C13.5054 7.48751 8.2958 17.9363 0.00580323 23.3192C-0.0916968 25.3658 1.06664 27.4108 3.41414 27.6329C5.55164 27.8354 7.0683 26.9346 9.02247 25.6225C8.76053 26.7905 8.50247 27.9594 8.2483 29.1292L7.97664 30.3733C7.71893 31.5457 7.52187 32.7306 7.38622 33.9233C6.21664 44.3725 11.0596 49.5292 16.7312 49.5292C17.6791 49.5292 18.6187 49.4167 19.5508 49.1792C25.8 47.5942 31.8166 40.4263 38.9366 23.925C38.8283 25.72 38.8175 27.3958 38.895 28.9521C39.3637 38.4092 43.1046 41.2467 48.3896 41.2467C52.3866 41.2467 56.1296 39.1608 58.0329 36.5688C59.4287 34.7354 59.9995 32.7121 59.9995 31.1313C59.9995 29.9046 59.6104 28.925 58.9912 28.4279" fill="#3A3A3A"/>
</svg>
