<svg width="110" height="34" viewBox="0 0 110 34" fill="none" xmlns="http://www.w3.org/2000/svg">
<path d="M71.082 8.11798C66.292 8.14097 62.39 12.078 62.412 16.98C62.434 21.882 66.375 25.782 71.165 25.76C75.955 25.738 79.858 21.8 79.835 16.9C79.812 12 75.872 8.09698 71.08 8.11998L71.082 8.11798ZM71.148 22.165C69.79 22.173 68.485 21.64 67.52 20.685C66.555 19.73 66.02 18.429 66.005 17.071C65.99 15.713 66.53 14.408 67.485 13.443C68.44 12.478 69.741 11.943 71.099 11.928C72.457 11.913 73.762 12.453 74.727 13.408C75.692 14.363 76.227 15.664 76.242 17.022C76.256 19.747 73.872 22.152 71.148 22.166V22.165ZM90.488 12.273C87.983 12.285 86.032 14.363 86.044 16.868L86.084 25.253L82.272 25.271L82.195 8.60798L86.007 8.58998L86.02 11.203C86.02 11.203 87.64 8.58298 90.908 8.56798L91.998 8.56198L92.016 12.264L90.488 12.273ZM52.462 8.74998L55.348 20.172L58.344 8.72198L62.156 8.70498L57.44 25.4L53.738 25.417L50.744 13.779L47.858 25.444L44.155 25.461L39.177 8.82097L42.879 8.80398L46.199 20.224L48.869 8.77597L52.462 8.74998ZM103.137 16.136C105.742 14.6 107.582 11.759 107.567 8.49198L103.755 8.50998C103.769 11.342 101.491 13.64 98.769 13.65L98.224 13.652L98.164 0.474976L94.352 0.492975L94.469 25.213L98.279 25.196L98.243 17.356L98.678 17.354C99.114 17.352 99.551 17.568 99.662 17.894L105.032 25.164L109.497 25.144L103.137 16.136Z" fill="#4B4B4B"/>
<path d="M30.3531 8.30997C26.2161 8.32997 23.0701 11.067 21.8931 15.428C19.9181 12.388 18.3771 8.91098 17.4931 5.97498L13.1381 5.99498L13.1921 17.538C13.1968 18.6355 12.7657 19.6899 11.9933 20.4696C11.2209 21.2493 10.1705 21.6904 9.07305 21.696C7.97557 21.7008 6.92109 21.2696 6.1414 20.4972C5.36171 19.7248 4.92061 18.6745 4.91505 17.577L4.86005 6.03398L0.503052 6.05398L0.557052 17.597C0.580052 22.387 4.40705 26.183 9.09105 26.16C13.7751 26.137 17.5691 22.308 17.5471 17.517L17.5371 15.557C18.4151 17.294 19.5131 19.14 20.7201 20.769L18.0571 33.522L22.5211 33.502L24.4411 24.236C26.1881 25.318 28.1411 25.961 30.4371 25.95C35.229 25.927 39.1321 21.99 39.1071 16.98C39.0888 14.6717 38.1582 12.4644 36.5183 10.8398C34.8784 9.21529 32.6624 8.30547 30.3541 8.30898L30.3531 8.30997ZM30.4151 21.487C28.6731 21.495 26.9281 20.741 25.5071 19.549L25.9341 17.806V17.706C26.2541 15.852 27.2161 12.69 30.4841 12.676C31.6363 12.6741 32.7427 13.1273 33.5625 13.9371C34.3822 14.747 34.8489 15.8478 34.8611 17C34.7631 19.505 32.7041 21.475 30.4161 21.486L30.4151 21.487Z" fill="#3A3A3A"/>
</svg>
