<svg width="28" height="50" viewBox="0 0 28 50" fill="none" xmlns="http://www.w3.org/2000/svg">
<path d="M26.0143 0.0104032L19.5305 0C12.2462 0 7.5387 4.8297 7.5387 12.3049V17.9783H1.01952C0.456182 17.9783 0 18.435 0 18.9984V27.2185C0 27.7818 0.456702 28.238 1.01952 28.238H7.5387V48.98C7.5387 49.5433 7.99488 49.9995 8.55822 49.9995H17.0639C17.6272 49.9995 18.0834 49.5428 18.0834 48.98V28.238H25.7059C26.2692 28.238 26.7254 27.7818 26.7254 27.2185L26.7285 18.9984C26.7285 18.7279 26.6208 18.4689 26.4299 18.2774C26.239 18.086 25.9789 17.9783 25.7085 17.9783H18.0834V13.1689C18.0834 10.8573 18.6343 9.68385 21.6455 9.68385L26.0133 9.68229C26.5761 9.68229 27.0323 9.22558 27.0323 8.66277V1.02992C27.0323 0.467625 26.5766 0.0114436 26.0143 0.0104032Z" fill="black"/>
</svg>
